<svg width="1046" height="1005" viewBox="0 0 1046 1005" fill="none" xmlns="http://www.w3.org/2000/svg">
<path d="M476.432 25.8323C505.398 9.76408 540.602 9.76407 569.568 25.8323L926.499 223.829C957.006 240.752 975.931 272.892 975.931 307.778V697.222C975.931 732.108 957.006 764.248 926.499 781.171L569.568 979.168C540.602 995.236 505.398 995.236 476.432 979.168L119.501 781.171C88.994 764.248 70.0687 732.108 70.0687 697.222V307.778C70.0687 272.892 88.994 240.752 119.501 223.829L476.432 25.8323Z" fill="#71AD98"/>
<path d="M438.424 400V348L490.674 336V331.5H410.674V300H517.674V355L462.924 368.5V373H468.674C474.174 373 479.424 373.917 484.424 375.75C489.591 377.583 494.174 380.333 498.174 384C502.174 387.667 505.341 392.25 507.674 397.75C510.174 403.25 511.424 409.667 511.424 417C511.424 426.167 509.757 434.5 506.424 442C503.091 449.5 498.341 456 492.174 461.5C486.174 466.833 478.757 471 469.924 474C461.257 477 451.59 478.5 440.924 478.5C432.257 478.5 424.34 477.25 417.174 474.75C410.174 472.25 404.174 468.75 399.174 464.25C394.174 459.75 390.257 454.417 387.424 448.25C384.757 442.083 383.424 435.333 383.424 428C383.424 423.667 383.924 419.25 384.924 414.75L386.174 408.5H419.174L418.174 413.75C417.84 415.75 417.59 417.417 417.424 418.75C417.257 419.917 417.174 421.167 417.174 422.5C417.174 430 419.424 436 423.924 440.5C428.59 444.833 435.424 447 444.424 447C453.924 447 461.757 444.75 467.924 440.25C474.09 435.583 477.174 429 477.174 420.5C477.174 414.167 475.007 409.167 470.674 405.5C466.507 401.833 460.757 400 453.424 400H438.424ZM554.5 373.25H595.75L603.75 335.25H632.25L624.25 373.25H659V401.75H618L610 439.75H581.5L589.5 401.75H554.5V373.25ZM151.202 583.6L145.602 610H132.502L147.302 540H172.302C175.235 540 177.869 540.467 180.202 541.4C182.602 542.333 184.635 543.633 186.302 545.3C187.969 546.967 189.235 548.933 190.102 551.2C191.035 553.467 191.502 555.933 191.502 558.6C191.502 562.333 190.869 565.733 189.602 568.8C188.335 571.867 186.535 574.5 184.202 576.7C181.869 578.9 179.069 580.6 175.802 581.8C172.535 583 168.902 583.6 164.902 583.6H151.202ZM153.902 571H166.102C169.502 571 172.335 570 174.602 568C176.869 566 178.002 563.4 178.002 560.2C178.002 557.733 177.202 555.867 175.602 554.6C174.069 553.267 172.035 552.6 169.502 552.6H157.802L153.902 571ZM241.632 598.1L242.632 598.8L247.432 595.4L253.732 604.8L247.832 608.8C245.232 610.533 242.499 611.4 239.632 611.4C237.099 611.4 234.832 610.7 232.832 609.3C230.832 607.9 229.566 605.933 229.032 603.4H227.232C226.632 604.533 225.932 605.6 225.132 606.6C224.332 607.533 223.332 608.367 222.132 609.1C220.999 609.767 219.632 610.3 218.032 610.7C216.499 611.167 214.666 611.4 212.532 611.4C209.932 611.4 207.532 610.9 205.332 609.9C203.132 608.833 201.199 607.4 199.532 605.6C197.932 603.733 196.666 601.567 195.732 599.1C194.799 596.633 194.332 593.933 194.332 591C194.332 586.533 194.932 582.367 196.132 578.5C197.332 574.633 199.066 571.267 201.332 568.4C203.599 565.467 206.366 563.167 209.632 561.5C212.966 559.833 216.699 559 220.832 559C224.499 559 227.399 559.733 229.532 561.2C231.666 562.667 233.099 564.6 233.832 567H235.632L237.032 560.4H249.632L241.632 598.1ZM217.432 599.4C219.832 599.4 221.966 598.933 223.832 598C225.699 597 227.232 595.7 228.432 594.1C229.699 592.5 230.666 590.633 231.332 588.5C231.999 586.3 232.332 584 232.332 581.6C232.332 578.467 231.432 575.933 229.632 574C227.832 572 225.432 571 222.432 571C220.032 571 217.899 571.5 216.032 572.5C214.166 573.433 212.599 574.7 211.332 576.3C210.066 577.9 209.099 579.8 208.432 582C207.766 584.133 207.432 586.4 207.432 588.8C207.432 591.6 208.232 594.067 209.832 596.2C211.499 598.333 214.032 599.4 217.432 599.4ZM272.763 572.2L271.763 571.6L263.863 577.4L257.163 568.4L265.163 562.4C266.696 561.267 268.296 560.433 269.963 559.9C271.696 559.3 273.33 559 274.863 559C277.53 559 279.863 559.733 281.863 561.2C283.863 562.667 285.063 564.733 285.463 567.4H287.263C288.596 564.6 290.463 562.5 292.863 561.1C295.263 559.7 297.963 559 300.963 559C304.763 559 307.83 560.2 310.163 562.6C312.563 564.933 313.763 568.2 313.763 572.4C313.763 573.267 313.696 574.133 313.563 575C313.496 575.8 313.33 576.8 313.063 578L312.563 580.2L299.163 581.2L299.463 579.8C299.663 578.8 299.763 577.9 299.763 577.1C299.763 575.167 299.23 573.633 298.163 572.5C297.096 571.367 295.496 570.8 293.363 570.8C290.696 570.8 288.563 571.7 286.963 573.5C285.43 575.3 284.296 577.867 283.563 581.2L279.963 598H291.963V610H257.763V598H267.363L272.763 572.2ZM337.993 572.4H323.993V560.4H340.593L345.193 538.6H357.793L353.193 560.4H370.393V572.4H350.593L344.993 598.1L345.993 598.8L359.393 589.6L365.693 599L351.193 608.8C348.66 610.533 345.96 611.4 343.093 611.4C341.627 611.4 340.227 611.133 338.893 610.6C337.56 610.133 336.393 609.433 335.393 608.5C334.393 607.567 333.593 606.433 332.993 605.1C332.393 603.767 332.093 602.267 332.093 600.6C332.093 600.067 332.127 599.6 332.193 599.2C332.26 598.733 332.36 598.133 332.493 597.4L337.993 572.4ZM415.324 581.2C415.59 579.933 415.724 578.867 415.724 578C415.724 575.6 415.024 573.733 413.624 572.4C412.224 571.067 410.324 570.4 407.924 570.4C404.924 570.4 402.357 571.467 400.224 573.6C398.09 575.733 396.657 578.6 395.924 582.2L390.024 610H377.424L387.924 560.4H400.024L398.324 568.4H400.124C401.724 565.067 403.824 562.667 406.424 561.2C409.09 559.733 412.024 559 415.224 559C419.424 559 422.757 560.267 425.224 562.8C427.757 565.333 429.024 568.9 429.024 573.5C429.024 574.567 428.957 575.567 428.824 576.5C428.69 577.367 428.524 578.333 428.324 579.4L424.324 598.1L425.324 598.8L429.624 595.8L435.924 605.2L430.524 608.8C427.99 610.533 425.29 611.4 422.424 611.4C420.957 611.4 419.557 611.133 418.224 610.6C416.89 610.133 415.724 609.467 414.724 608.6C413.724 607.667 412.924 606.567 412.324 605.3C411.724 603.967 411.424 602.467 411.424 600.8C411.424 599.933 411.524 598.933 411.724 597.8L415.324 581.2ZM455.154 589.3C455.021 589.833 454.954 590.4 454.954 591C454.954 593.4 455.854 595.4 457.654 597C459.521 598.6 461.954 599.4 464.954 599.4C468.088 599.4 470.588 598.833 472.454 597.7C474.321 596.567 475.754 595.233 476.754 593.7L486.754 600C485.954 601.333 484.888 602.667 483.554 604C482.288 605.333 480.688 606.567 478.754 607.7C476.888 608.767 474.654 609.633 472.054 610.3C469.521 611.033 466.554 611.4 463.154 611.4C460.088 611.4 457.254 610.933 454.654 610C452.121 609 449.921 607.667 448.054 606C446.254 604.267 444.821 602.233 443.754 599.9C442.754 597.5 442.254 594.867 442.254 592C442.254 587.467 442.921 583.2 444.254 579.2C445.654 575.2 447.654 571.7 450.254 568.7C452.854 565.7 456.054 563.333 459.854 561.6C463.654 559.867 468.021 559 472.954 559C476.421 559 479.421 559.567 481.954 560.7C484.554 561.767 486.688 563.233 488.354 565.1C490.021 566.9 491.254 568.967 492.054 571.3C492.921 573.633 493.354 576.033 493.354 578.5C493.354 579.3 493.288 580.133 493.154 581C493.088 581.8 492.921 582.867 492.654 584.2L491.554 589.3H455.154ZM470.954 570.4C467.821 570.4 465.088 571.2 462.754 572.8C460.488 574.333 458.788 576.233 457.654 578.5H481.054C481.054 575.967 480.254 574 478.654 572.6C477.121 571.133 474.554 570.4 470.954 570.4ZM517.685 572.2L516.685 571.6L508.785 577.4L502.085 568.4L510.085 562.4C511.618 561.267 513.218 560.433 514.885 559.9C516.618 559.3 518.251 559 519.785 559C522.451 559 524.785 559.733 526.785 561.2C528.785 562.667 529.985 564.733 530.385 567.4H532.185C533.518 564.6 535.385 562.5 537.785 561.1C540.185 559.7 542.885 559 545.885 559C549.685 559 552.751 560.2 555.085 562.6C557.485 564.933 558.685 568.2 558.685 572.4C558.685 573.267 558.618 574.133 558.485 575C558.418 575.8 558.251 576.8 557.985 578L557.485 580.2L544.085 581.2L544.385 579.8C544.585 578.8 544.685 577.9 544.685 577.1C544.685 575.167 544.151 573.633 543.085 572.5C542.018 571.367 540.418 570.8 538.285 570.8C535.618 570.8 533.485 571.7 531.885 573.5C530.351 575.3 529.218 577.867 528.485 581.2L524.885 598H536.885V610H502.685V598H512.285L517.685 572.2ZM577.615 589.3C577.482 589.833 577.415 590.4 577.415 591C577.415 593.4 578.315 595.4 580.115 597C581.982 598.6 584.415 599.4 587.415 599.4C590.549 599.4 593.049 598.833 594.915 597.7C596.782 596.567 598.215 595.233 599.215 593.7L609.215 600C608.415 601.333 607.349 602.667 606.015 604C604.749 605.333 603.149 606.567 601.215 607.7C599.349 608.767 597.115 609.633 594.515 610.3C591.982 611.033 589.015 611.4 585.615 611.4C582.549 611.4 579.715 610.933 577.115 610C574.582 609 572.382 607.667 570.515 606C568.715 604.267 567.282 602.233 566.215 599.9C565.215 597.5 564.715 594.867 564.715 592C564.715 587.467 565.382 583.2 566.715 579.2C568.115 575.2 570.115 571.7 572.715 568.7C575.315 565.7 578.515 563.333 582.315 561.6C586.115 559.867 590.482 559 595.415 559C598.882 559 601.882 559.567 604.415 560.7C607.015 561.767 609.149 563.233 610.815 565.1C612.482 566.9 613.715 568.967 614.515 571.3C615.382 573.633 615.815 576.033 615.815 578.5C615.815 579.3 615.749 580.133 615.615 581C615.549 581.8 615.382 582.867 615.115 584.2L614.015 589.3H577.615ZM593.415 570.4C590.282 570.4 587.549 571.2 585.215 572.8C582.949 574.333 581.249 576.233 580.115 578.5H603.515C603.515 575.967 602.715 574 601.115 572.6C599.582 571.133 597.015 570.4 593.415 570.4ZM670.246 598.1L671.246 598.8L676.646 595L682.946 604.4L676.446 608.8C675.046 609.733 673.646 610.4 672.246 610.8C670.912 611.2 669.579 611.4 668.246 611.4C665.712 611.4 663.446 610.7 661.446 609.3C659.446 607.9 658.179 605.933 657.646 603.4H655.846C655.246 604.533 654.546 605.6 653.746 606.6C652.946 607.533 651.946 608.367 650.746 609.1C649.612 609.767 648.246 610.3 646.646 610.7C645.112 611.167 643.279 611.4 641.146 611.4C638.546 611.4 636.146 610.9 633.946 609.9C631.746 608.833 629.812 607.4 628.146 605.6C626.546 603.733 625.279 601.567 624.346 599.1C623.412 596.633 622.946 593.933 622.946 591C622.946 586.533 623.546 582.367 624.746 578.5C625.946 574.633 627.679 571.267 629.946 568.4C632.212 565.467 634.979 563.167 638.246 561.5C641.579 559.833 645.312 559 649.446 559C652.979 559 655.846 559.8 658.046 561.4C660.246 563 661.679 565.067 662.346 567.6H664.146L670.246 538.6H682.946L676.746 567.6L670.246 598.1ZM646.046 599.4C648.446 599.4 650.579 598.933 652.446 598C654.312 597 655.846 595.7 657.046 594.1C658.312 592.5 659.279 590.633 659.946 588.5C660.612 586.3 660.946 584 660.946 581.6C660.946 578.467 660.046 575.933 658.246 574C656.446 572 654.046 571 651.046 571C648.646 571 646.512 571.5 644.646 572.5C642.779 573.433 641.212 574.7 639.946 576.3C638.679 577.9 637.712 579.8 637.046 582C636.379 584.133 636.046 586.4 636.046 588.8C636.046 591.6 636.846 594.067 638.446 596.2C640.112 598.333 642.646 599.4 646.046 599.4ZM807.407 540L797.707 585.8C796.773 590.333 795.507 594.2 793.907 597.4C792.373 600.6 790.44 603.267 788.107 605.4C785.773 607.467 783.04 609 779.907 610C776.84 610.933 773.273 611.4 769.207 611.4C766.207 611.4 763.407 610.933 760.807 610C758.207 609.133 755.973 607.867 754.107 606.2C752.24 604.467 750.773 602.367 749.707 599.9C748.64 597.367 748.107 594.5 748.107 591.3C748.107 590.233 748.14 589.2 748.207 588.2C748.273 587.133 748.473 585.933 748.807 584.6L758.207 540H771.407L761.707 585.8C761.573 586.533 761.44 587.233 761.307 587.9C761.24 588.567 761.207 589.233 761.207 589.9C761.207 592.767 761.973 595 763.507 596.6C765.107 598.2 767.473 599 770.607 599C774.607 599 777.673 597.933 779.807 595.8C782.007 593.667 783.573 590.333 784.507 585.8L794.207 540H807.407ZM852.437 610H839.037L843.537 589C843.67 588.333 843.737 587.8 843.737 587.4C843.737 586.267 843.37 585.367 842.637 584.7C841.904 583.967 840.77 583.6 839.237 583.6H824.737L819.137 610H806.037L820.837 540H845.437C848.704 540 851.57 540.467 854.037 541.4C856.57 542.267 858.67 543.467 860.337 545C862.07 546.467 863.337 548.233 864.137 550.3C865.004 552.367 865.437 554.533 865.437 556.8C865.437 561.667 864.304 565.633 862.037 568.7C859.837 571.7 856.437 573.967 851.837 575.5V577.3C853.77 577.5 855.237 578.2 856.237 579.4C857.304 580.533 857.837 582 857.837 583.8C857.837 584.467 857.77 585.133 857.637 585.8L852.437 610ZM827.437 571H839.437C842.97 571 845.87 570.067 848.137 568.2C850.404 566.333 851.537 563.8 851.537 560.6C851.537 558.067 850.837 556.1 849.437 554.7C848.104 553.3 846.037 552.6 843.237 552.6H831.337L827.437 571ZM878.668 540H900.068L893.268 590.2L890.868 601.6H893.268L895.868 589.6L909.868 540H931.868L916.968 610H905.568L915.368 564L919.868 548.4H917.468L899.568 610H881.668L889.568 548.4H887.168L885.168 563.4L875.168 610H863.868L878.668 540ZM139.002 702.2C141.069 692.333 144.502 685.1 149.302 680.5C154.169 675.9 160.835 673.6 169.302 673.6C172.835 673.6 175.969 674.167 178.702 675.3C181.435 676.367 183.735 677.9 185.602 679.9C187.469 681.833 188.869 684.133 189.802 686.8C190.802 689.467 191.302 692.333 191.302 695.4C191.302 696.533 191.235 697.667 191.102 698.8C191.035 699.933 190.869 701.067 190.602 702.2L187.302 717.8C185.235 727.667 181.769 734.9 176.902 739.5C172.102 744.1 165.469 746.4 157.002 746.4C153.469 746.4 150.335 745.867 147.602 744.8C144.869 743.667 142.569 742.133 140.702 740.2C138.835 738.2 137.402 735.9 136.402 733.3C135.469 730.633 135.002 727.733 135.002 724.6C135.002 723.467 135.035 722.333 135.102 721.2C135.235 720.067 135.435 718.933 135.702 717.8L139.002 702.2ZM158.202 734.4C160.469 734.4 162.469 734 164.202 733.2C165.935 732.333 167.435 731.2 168.702 729.8C170.035 728.4 171.102 726.733 171.902 724.8C172.769 722.867 173.435 720.8 173.902 718.6L177.602 701.4C177.802 700.333 177.935 699.433 178.002 698.7C178.135 697.9 178.202 697.133 178.202 696.4C178.202 693 177.302 690.367 175.502 688.5C173.769 686.567 171.302 685.6 168.102 685.6C165.835 685.6 163.835 686.033 162.102 686.9C160.369 687.7 158.835 688.8 157.502 690.2C156.235 691.6 155.169 693.267 154.302 695.2C153.502 697.133 152.869 699.2 152.402 701.4L148.702 718.6C148.302 720.4 148.102 722.067 148.102 723.6C148.102 727 148.969 729.667 150.702 731.6C152.502 733.467 155.002 734.4 158.202 734.4ZM211.532 707.2L210.532 706.6L202.632 712.4L195.932 703.4L203.932 697.4C205.466 696.267 207.066 695.433 208.732 694.9C210.466 694.3 212.099 694 213.632 694C216.299 694 218.632 694.733 220.632 696.2C222.632 697.667 223.832 699.733 224.232 702.4H226.032C227.366 699.6 229.232 697.5 231.632 696.1C234.032 694.7 236.732 694 239.732 694C243.532 694 246.599 695.2 248.932 697.6C251.332 699.933 252.532 703.2 252.532 707.4C252.532 708.267 252.466 709.133 252.332 710C252.266 710.8 252.099 711.8 251.832 713L251.332 715.2L237.932 716.2L238.232 714.8C238.432 713.8 238.532 712.9 238.532 712.1C238.532 710.167 237.999 708.633 236.932 707.5C235.866 706.367 234.266 705.8 232.132 705.8C229.466 705.8 227.332 706.7 225.732 708.5C224.199 710.3 223.066 712.867 222.332 716.2L218.732 733H230.732V745H196.532V733H206.132L211.532 707.2ZM293.363 737.8H291.563C290.83 738.933 289.996 740.033 289.063 741.1C288.13 742.1 286.996 743 285.663 743.8C284.33 744.6 282.73 745.233 280.863 745.7C278.996 746.167 276.83 746.4 274.363 746.4C271.963 746.4 269.696 746 267.563 745.2C265.496 744.4 263.696 743.2 262.163 741.6C260.63 740 259.396 738 258.463 735.6C257.596 733.133 257.163 730.267 257.163 727C257.163 722.867 257.763 718.833 258.963 714.9C260.23 710.9 262.063 707.367 264.463 704.3C266.863 701.167 269.83 698.667 273.363 696.8C276.963 694.933 281.13 694 285.863 694C289.93 694 292.996 694.8 295.063 696.4C297.196 697.933 298.53 700 299.063 702.6H300.863L302.363 695.4H314.963L301.863 757.2C301.33 759.467 300.196 761.333 298.463 762.8C296.73 764.267 294.73 765 292.463 765H261.663V753H287.463C289.263 753 290.363 752 290.763 750L293.363 737.8ZM280.863 734.4C283.263 734.4 285.463 733.9 287.463 732.9C289.53 731.9 291.296 730.567 292.763 728.9C294.296 727.233 295.463 725.3 296.263 723.1C297.13 720.9 297.563 718.6 297.563 716.2C297.563 713 296.63 710.5 294.763 708.7C292.896 706.9 290.263 706 286.863 706C284.33 706 282.03 706.5 279.963 707.5C277.896 708.5 276.13 709.833 274.663 711.5C273.263 713.1 272.163 715 271.363 717.2C270.563 719.333 270.163 721.533 270.163 723.8C270.163 727.333 271.13 730 273.063 731.8C275.063 733.533 277.663 734.4 280.863 734.4ZM364.093 733.1L365.093 733.8L369.893 730.4L376.193 739.8L370.293 743.8C367.693 745.533 364.96 746.4 362.093 746.4C359.56 746.4 357.293 745.7 355.293 744.3C353.293 742.9 352.027 740.933 351.493 738.4H349.693C349.093 739.533 348.393 740.6 347.593 741.6C346.793 742.533 345.793 743.367 344.593 744.1C343.46 744.767 342.093 745.3 340.493 745.7C338.96 746.167 337.127 746.4 334.993 746.4C332.393 746.4 329.993 745.9 327.793 744.9C325.593 743.833 323.66 742.4 321.993 740.6C320.393 738.733 319.127 736.567 318.193 734.1C317.26 731.633 316.793 728.933 316.793 726C316.793 721.533 317.393 717.367 318.593 713.5C319.793 709.633 321.527 706.267 323.793 703.4C326.06 700.467 328.827 698.167 332.093 696.5C335.427 694.833 339.16 694 343.293 694C346.96 694 349.86 694.733 351.993 696.2C354.127 697.667 355.56 699.6 356.293 702H358.093L359.493 695.4H372.093L364.093 733.1ZM339.893 734.4C342.293 734.4 344.427 733.933 346.293 733C348.16 732 349.693 730.7 350.893 729.1C352.16 727.5 353.127 725.633 353.793 723.5C354.46 721.3 354.793 719 354.793 716.6C354.793 713.467 353.893 710.933 352.093 709C350.293 707 347.893 706 344.893 706C342.493 706 340.36 706.5 338.493 707.5C336.627 708.433 335.06 709.7 333.793 711.3C332.527 712.9 331.56 714.8 330.893 717C330.227 719.133 329.893 721.4 329.893 723.8C329.893 726.6 330.693 729.067 332.293 731.2C333.96 733.333 336.493 734.4 339.893 734.4ZM415.324 716.2C415.59 714.933 415.724 713.867 415.724 713C415.724 710.6 415.024 708.733 413.624 707.4C412.224 706.067 410.324 705.4 407.924 705.4C404.924 705.4 402.357 706.467 400.224 708.6C398.09 710.733 396.657 713.6 395.924 717.2L390.024 745H377.424L387.924 695.4H400.024L398.324 703.4H400.124C401.724 700.067 403.824 697.667 406.424 696.2C409.09 694.733 412.024 694 415.224 694C419.424 694 422.757 695.267 425.224 697.8C427.757 700.333 429.024 703.9 429.024 708.5C429.024 709.567 428.957 710.567 428.824 711.5C428.69 712.367 428.524 713.333 428.324 714.4L424.324 733.1L425.324 733.8L429.624 730.8L435.924 740.2L430.524 743.8C427.99 745.533 425.29 746.4 422.424 746.4C420.957 746.4 419.557 746.133 418.224 745.6C416.89 745.133 415.724 744.467 414.724 743.6C413.724 742.667 412.924 741.567 412.324 740.3C411.724 738.967 411.424 737.467 411.424 735.8C411.424 734.933 411.524 733.933 411.724 732.8L415.324 716.2ZM476.654 743.8C475.321 744.733 473.954 745.4 472.554 745.8C471.154 746.2 469.788 746.4 468.454 746.4C466.988 746.4 465.588 746.133 464.254 745.6C462.921 745.133 461.754 744.467 460.754 743.6C459.754 742.667 458.954 741.567 458.354 740.3C457.821 738.967 457.554 737.5 457.554 735.9C457.554 734.633 457.688 733.467 457.954 732.4L463.954 707.3L462.954 706.6L449.554 715.8L443.254 706.4L457.754 696.6C459.088 695.667 460.454 695 461.854 694.6C463.254 694.2 464.621 694 465.954 694C467.421 694 468.821 694.267 470.154 694.8C471.488 695.267 472.654 695.967 473.654 696.9C474.654 697.767 475.421 698.867 475.954 700.2C476.554 701.467 476.854 702.9 476.854 704.5C476.854 705.767 476.721 706.933 476.454 708L470.454 733.1L471.454 733.8L484.854 724.6L491.154 734L476.654 743.8ZM485.354 680.7C485.354 682.033 485.088 683.3 484.554 684.5C484.088 685.633 483.421 686.633 482.554 687.5C481.688 688.3 480.654 688.967 479.454 689.5C478.321 689.967 477.121 690.2 475.854 690.2C474.521 690.2 473.288 689.967 472.154 689.5C471.021 688.967 470.021 688.3 469.154 687.5C468.288 686.633 467.588 685.633 467.054 684.5C466.588 683.3 466.354 682.033 466.354 680.7C466.354 679.367 466.588 678.133 467.054 677C467.588 675.8 468.288 674.8 469.154 674C470.021 673.133 471.021 672.467 472.154 672C473.288 671.467 474.521 671.2 475.854 671.2C477.121 671.2 478.321 671.467 479.454 672C480.654 672.467 481.688 673.133 482.554 674C483.421 674.8 484.088 675.8 484.554 677C485.088 678.133 485.354 679.367 485.354 680.7ZM546.785 733V745H503.885V725.3L541.285 708.8V707H512.185V695.4H553.285V714.8L516.085 731.2V733H546.785ZM609.015 733.1L610.015 733.8L614.815 730.4L621.115 739.8L615.215 743.8C612.615 745.533 609.882 746.4 607.015 746.4C604.482 746.4 602.215 745.7 600.215 744.3C598.215 742.9 596.949 740.933 596.415 738.4H594.615C594.015 739.533 593.315 740.6 592.515 741.6C591.715 742.533 590.715 743.367 589.515 744.1C588.382 744.767 587.015 745.3 585.415 745.7C583.882 746.167 582.049 746.4 579.915 746.4C577.315 746.4 574.915 745.9 572.715 744.9C570.515 743.833 568.582 742.4 566.915 740.6C565.315 738.733 564.049 736.567 563.115 734.1C562.182 731.633 561.715 728.933 561.715 726C561.715 721.533 562.315 717.367 563.515 713.5C564.715 709.633 566.449 706.267 568.715 703.4C570.982 700.467 573.749 698.167 577.015 696.5C580.349 694.833 584.082 694 588.215 694C591.882 694 594.782 694.733 596.915 696.2C599.049 697.667 600.482 699.6 601.215 702H603.015L604.415 695.4H617.015L609.015 733.1ZM584.815 734.4C587.215 734.4 589.349 733.933 591.215 733C593.082 732 594.615 730.7 595.815 729.1C597.082 727.5 598.049 725.633 598.715 723.5C599.382 721.3 599.715 719 599.715 716.6C599.715 713.467 598.815 710.933 597.015 709C595.215 707 592.815 706 589.815 706C587.415 706 585.282 706.5 583.415 707.5C581.549 708.433 579.982 709.7 578.715 711.3C577.449 712.9 576.482 714.8 575.815 717C575.149 719.133 574.815 721.4 574.815 723.8C574.815 726.6 575.615 729.067 577.215 731.2C578.882 733.333 581.415 734.4 584.815 734.4ZM644.146 707.4H630.146V695.4H646.746L651.346 673.6H663.946L659.346 695.4H676.546V707.4H656.746L651.146 733.1L652.146 733.8L665.546 724.6L671.846 734L657.346 743.8C654.812 745.533 652.112 746.4 649.246 746.4C647.779 746.4 646.379 746.133 645.046 745.6C643.712 745.133 642.546 744.433 641.546 743.5C640.546 742.567 639.746 741.433 639.146 740.1C638.546 738.767 638.246 737.267 638.246 735.6C638.246 735.067 638.279 734.6 638.346 734.2C638.412 733.733 638.512 733.133 638.646 732.4L644.146 707.4ZM721.576 743.8C720.243 744.733 718.876 745.4 717.476 745.8C716.076 746.2 714.71 746.4 713.376 746.4C711.91 746.4 710.51 746.133 709.176 745.6C707.843 745.133 706.676 744.467 705.676 743.6C704.676 742.667 703.876 741.567 703.276 740.3C702.743 738.967 702.476 737.5 702.476 735.9C702.476 734.633 702.61 733.467 702.876 732.4L708.876 707.3L707.876 706.6L694.476 715.8L688.176 706.4L702.676 696.6C704.01 695.667 705.376 695 706.776 694.6C708.176 694.2 709.543 694 710.876 694C712.343 694 713.743 694.267 715.076 694.8C716.41 695.267 717.576 695.967 718.576 696.9C719.576 697.767 720.343 698.867 720.876 700.2C721.476 701.467 721.776 702.9 721.776 704.5C721.776 705.767 721.643 706.933 721.376 708L715.376 733.1L716.376 733.8L729.776 724.6L736.076 734L721.576 743.8ZM730.276 680.7C730.276 682.033 730.01 683.3 729.476 684.5C729.01 685.633 728.343 686.633 727.476 687.5C726.61 688.3 725.576 688.967 724.376 689.5C723.243 689.967 722.043 690.2 720.776 690.2C719.443 690.2 718.21 689.967 717.076 689.5C715.943 688.967 714.943 688.3 714.076 687.5C713.21 686.633 712.51 685.633 711.976 684.5C711.51 683.3 711.276 682.033 711.276 680.7C711.276 679.367 711.51 678.133 711.976 677C712.51 675.8 713.21 674.8 714.076 674C714.943 673.133 715.943 672.467 717.076 672C718.21 671.467 719.443 671.2 720.776 671.2C722.043 671.2 723.243 671.467 724.376 672C725.576 672.467 726.61 673.133 727.476 674C728.343 674.8 729.01 675.8 729.476 677C730.01 678.133 730.276 679.367 730.276 680.7ZM800.607 714C800.607 718.667 799.94 723 798.607 727C797.273 730.933 795.307 734.333 792.707 737.2C790.107 740.067 786.84 742.333 782.907 744C779.04 745.6 774.54 746.4 769.407 746.4C766.473 746.4 763.707 745.967 761.107 745.1C758.573 744.233 756.34 742.967 754.407 741.3C752.473 739.567 750.94 737.467 749.807 735C748.673 732.533 748.107 729.733 748.107 726.6C748.107 721.467 748.907 716.9 750.507 712.9C752.107 708.833 754.273 705.4 757.007 702.6C759.807 699.8 763.073 697.667 766.807 696.2C770.607 694.733 774.673 694 779.007 694C782.14 694 785.04 694.5 787.707 695.5C790.373 696.433 792.64 697.767 794.507 699.5C796.44 701.233 797.94 703.333 799.007 705.8C800.073 708.267 800.607 711 800.607 714ZM771.307 734.6C773.707 734.533 775.907 734 777.907 733C779.973 732 781.707 730.7 783.107 729.1C784.573 727.433 785.707 725.5 786.507 723.3C787.307 721.1 787.707 718.767 787.707 716.3C787.707 712.833 786.773 710.233 784.907 708.5C783.04 706.7 780.54 705.8 777.407 705.8C775.007 705.8 772.807 706.333 770.807 707.4C768.807 708.4 767.073 709.767 765.607 711.5C764.14 713.167 763.007 715.1 762.207 717.3C761.407 719.5 761.007 721.8 761.007 724.2C761.007 727.6 761.94 730.2 763.807 732C765.673 733.733 768.173 734.6 771.307 734.6ZM843.937 716.2C844.204 714.933 844.337 713.867 844.337 713C844.337 710.6 843.637 708.733 842.237 707.4C840.837 706.067 838.937 705.4 836.537 705.4C833.537 705.4 830.97 706.467 828.837 708.6C826.704 710.733 825.27 713.6 824.537 717.2L818.637 745H806.037L816.537 695.4H828.637L826.937 703.4H828.737C830.337 700.067 832.437 697.667 835.037 696.2C837.704 694.733 840.637 694 843.837 694C848.037 694 851.37 695.267 853.837 697.8C856.37 700.333 857.637 703.9 857.637 708.5C857.637 709.567 857.57 710.567 857.437 711.5C857.304 712.367 857.137 713.333 856.937 714.4L852.937 733.1L853.937 733.8L858.237 730.8L864.537 740.2L859.137 743.8C856.604 745.533 853.904 746.4 851.037 746.4C849.57 746.4 848.17 746.133 846.837 745.6C845.504 745.133 844.337 744.467 843.337 743.6C842.337 742.667 841.537 741.567 840.937 740.3C840.337 738.967 840.037 737.467 840.037 735.8C840.037 734.933 840.137 733.933 840.337 732.8L843.937 716.2ZM899.468 705.4C898.734 705.4 897.968 705.5 897.168 705.7C896.434 705.833 895.734 706.067 895.068 706.4C894.401 706.733 893.834 707.2 893.368 707.8C892.968 708.333 892.768 709 892.768 709.8C892.768 711.2 893.568 712.233 895.168 712.9C896.768 713.567 899.501 714.133 903.368 714.6C907.701 715.133 911.201 716.467 913.868 718.6C916.534 720.667 917.868 723.667 917.868 727.6C917.868 733.467 915.801 738.067 911.668 741.4C907.601 744.733 901.934 746.4 894.668 746.4C891.001 746.4 887.834 745.867 885.168 744.8C882.568 743.733 880.401 742.4 878.668 740.8C877.001 739.2 875.734 737.433 874.868 735.5C874.001 733.567 873.534 731.733 873.468 730L885.868 727C886.068 729.2 887.001 731.1 888.668 732.7C890.334 734.233 892.868 735 896.268 735C898.601 735 900.634 734.633 902.368 733.9C904.101 733.167 904.968 731.867 904.968 730C904.968 728.6 904.301 727.5 902.968 726.7C901.634 725.833 899.168 725.233 895.568 724.9C890.768 724.5 886.934 723.133 884.068 720.8C881.268 718.467 879.868 715.367 879.868 711.5C879.868 708.7 880.434 706.2 881.568 704C882.768 701.8 884.334 699.967 886.268 698.5C888.201 697.033 890.434 695.933 892.968 695.2C895.568 694.4 898.268 694 901.068 694C904.534 694 907.434 694.467 909.768 695.4C912.101 696.333 914.001 697.5 915.468 698.9C916.934 700.3 918.001 701.833 918.668 703.5C919.401 705.1 919.868 706.6 920.068 708L907.868 711.2C907.601 709.4 906.768 708 905.368 707C903.968 705.933 902.001 705.4 899.468 705.4Z" fill="white"/>
</svg>
