<svg width="1047" height="995" viewBox="0 0 1047 995" fill="none" xmlns="http://www.w3.org/2000/svg">
<path d="M453.836 75.4266C491.084 34.8532 555.078 34.8532 592.326 75.4266L733.274 228.957C741.769 238.211 752.032 245.667 763.458 250.887L953.029 337.493C1003.13 360.38 1022.9 421.242 995.825 469.205L893.364 650.697C887.189 661.636 883.268 673.702 881.835 686.181L858.049 893.237C851.763 947.955 799.991 985.57 746.008 974.639L541.736 933.277C529.424 930.784 516.738 930.784 504.426 933.277L300.154 974.639C246.171 985.57 194.399 947.955 188.113 893.237L164.327 686.181C162.894 673.702 158.973 661.636 152.798 650.697L50.3371 469.205C23.2598 421.242 43.0349 360.38 93.1329 337.493L282.704 250.887C294.13 245.667 304.393 238.211 312.888 228.957L453.836 75.4266Z" fill="#DF5F17"/>
<path d="M306.136 436L326.636 339H438.636V370.5H353.136L342.886 418H347.386C351.052 410.667 356.136 404.833 362.636 400.5C369.136 396.167 377.802 394 388.636 394C395.302 394 401.386 395.167 406.886 397.5C412.386 399.833 417.136 403.167 421.136 407.5C425.136 411.667 428.219 416.833 430.386 423C432.552 429.167 433.636 436.083 433.636 443.75C433.636 453.75 431.886 463.25 428.386 472.25C425.052 481.25 420.136 489.083 413.636 495.75C407.136 502.417 399.052 507.75 389.386 511.75C379.886 515.583 368.969 517.5 356.636 517.5C347.636 517.5 339.469 516.333 332.136 514C324.802 511.667 318.552 508.417 313.386 504.25C308.219 500.083 304.219 495.083 301.386 489.25C298.552 483.25 297.136 476.75 297.136 469.75C297.136 466.417 297.552 462.667 298.386 458.5L299.636 452.5H332.636L331.886 456C331.552 457.667 331.302 459 331.136 460C330.969 460.833 330.886 461.917 330.886 463.25C330.886 469.917 333.386 475.417 338.386 479.75C343.386 483.917 351.136 486 361.636 486C367.136 486 372.219 485.083 376.886 483.25C381.552 481.417 385.552 478.917 388.886 475.75C392.219 472.417 394.802 468.583 396.636 464.25C398.469 459.917 399.386 455.167 399.386 450C399.386 441.167 397.386 434.917 393.386 431.25C389.386 427.417 384.386 425.5 378.386 425.5C373.552 425.5 369.636 426.583 366.636 428.75C363.802 430.75 361.636 433.167 360.136 436H306.136ZM502.712 426.5C502.712 420.833 504.795 415.917 508.962 411.75C513.129 407.583 518.045 405.5 523.712 405.5C529.379 405.5 534.295 407.583 538.462 411.75C542.629 415.917 544.712 420.833 544.712 426.5C544.712 432.167 542.629 437.083 538.462 441.25C534.295 445.417 529.379 447.5 523.712 447.5C518.045 447.5 513.129 445.417 508.962 441.25C504.795 437.083 502.712 432.167 502.712 426.5ZM463.212 407C468.379 382.333 477.295 364.25 489.962 352.75C502.629 341.25 519.629 335.5 540.962 335.5C549.295 335.5 556.712 336.917 563.212 339.75C569.879 342.583 575.462 346.5 579.962 351.5C584.462 356.333 587.879 362.083 590.212 368.75C592.712 375.417 593.962 382.583 593.962 390.25C593.962 396.083 593.379 401.667 592.212 407L583.962 446C578.795 470.667 569.879 488.75 557.212 500.25C544.545 511.75 527.545 517.5 506.212 517.5C497.879 517.5 490.379 516.083 483.712 513.25C477.212 510.417 471.712 506.583 467.212 501.75C462.712 496.75 459.212 490.917 456.712 484.25C454.379 477.583 453.212 470.417 453.212 462.75C453.212 456.917 453.795 451.333 454.962 446L463.212 407ZM511.212 487.5C522.212 487.5 530.795 484 536.962 477C543.295 470 547.629 461 549.962 450L559.712 405C560.712 400.5 561.212 396.25 561.212 392.25C561.212 384.083 559.129 377.583 554.962 372.75C550.795 367.917 544.462 365.5 535.962 365.5C524.962 365.5 516.295 369 509.962 376C503.795 383 499.545 392 497.212 403L487.462 448C486.462 452.5 485.962 456.75 485.962 460.75C485.962 468.917 488.045 475.417 492.212 480.25C496.379 485.083 502.712 487.5 511.212 487.5ZM690.538 368.25C690.538 374.583 689.288 380.417 686.788 385.75C684.288 390.917 680.955 395.417 676.788 399.25C672.788 402.917 668.205 405.833 663.038 408C657.871 410 652.705 411 647.538 411C642.705 411 638.121 410.333 633.788 409C629.455 407.667 625.621 405.75 622.288 403.25C619.121 400.583 616.621 397.333 614.788 393.5C612.955 389.5 612.038 384.917 612.038 379.75C612.038 373.917 613.038 368.417 615.038 363.25C617.038 357.917 619.955 353.25 623.788 349.25C627.788 345.25 632.621 342.083 638.288 339.75C643.955 337.25 650.455 336 657.788 336C661.955 336 665.955 336.667 669.788 338C673.788 339.333 677.288 341.333 680.288 344C683.455 346.667 685.955 350 687.788 354C689.621 358 690.538 362.75 690.538 368.25ZM649.038 390C654.038 390 658.371 388.167 662.038 384.5C665.705 380.833 667.538 376.167 667.538 370.5C667.538 366 666.288 362.667 663.788 360.5C661.288 358.167 657.871 357 653.538 357C648.205 357 643.788 359.083 640.288 363.25C636.788 367.25 635.038 371.833 635.038 377C635.038 381.333 636.288 384.583 638.788 386.75C641.455 388.917 644.871 390 649.038 390ZM740.288 474.25C740.288 480.583 739.038 486.417 736.538 491.75C734.038 496.917 730.705 501.417 726.538 505.25C722.538 508.917 717.955 511.833 712.788 514C707.621 516 702.455 517 697.288 517C692.455 517 687.871 516.333 683.538 515C679.205 513.667 675.371 511.75 672.038 509.25C668.871 506.583 666.371 503.333 664.538 499.5C662.705 495.5 661.788 490.917 661.788 485.75C661.788 479.917 662.788 474.417 664.788 469.25C666.788 463.917 669.705 459.25 673.538 455.25C677.538 451.25 682.371 448.083 688.038 445.75C693.705 443.25 700.205 442 707.538 442C711.705 442 715.705 442.667 719.538 444C723.538 445.333 727.038 447.333 730.038 450C733.205 452.667 735.705 456 737.538 460C739.371 464 740.288 468.75 740.288 474.25ZM698.788 496C703.788 496 708.121 494.167 711.788 490.5C715.455 486.833 717.288 482.167 717.288 476.5C717.288 472 716.038 468.667 713.538 466.5C711.038 464.167 707.621 463 703.288 463C697.955 463 693.538 465.083 690.038 469.25C686.538 473.25 684.788 477.833 684.788 483C684.788 487.333 686.038 490.583 688.538 492.75C691.205 494.917 694.621 496 698.788 496ZM731.538 386.5L741.788 406L623.788 466.5L613.538 447L731.538 386.5ZM325.693 579H367.793V591.6H336.193L332.793 607.6H361.093V620.2H330.093L323.993 649H310.793L325.693 579ZM386.924 628.3C386.79 628.833 386.724 629.4 386.724 630C386.724 632.4 387.624 634.4 389.424 636C391.29 637.6 393.724 638.4 396.724 638.4C399.857 638.4 402.357 637.833 404.224 636.7C406.09 635.567 407.524 634.233 408.524 632.7L418.524 639C417.724 640.333 416.657 641.667 415.324 643C414.057 644.333 412.457 645.567 410.524 646.7C408.657 647.767 406.424 648.633 403.824 649.3C401.29 650.033 398.324 650.4 394.924 650.4C391.857 650.4 389.024 649.933 386.424 649C383.89 648 381.69 646.667 379.824 645C378.024 643.267 376.59 641.233 375.524 638.9C374.524 636.5 374.024 633.867 374.024 631C374.024 626.467 374.69 622.2 376.024 618.2C377.424 614.2 379.424 610.7 382.024 607.7C384.624 604.7 387.824 602.333 391.624 600.6C395.424 598.867 399.79 598 404.724 598C408.19 598 411.19 598.567 413.724 599.7C416.324 600.767 418.457 602.233 420.124 604.1C421.79 605.9 423.024 607.967 423.824 610.3C424.69 612.633 425.124 615.033 425.124 617.5C425.124 618.3 425.057 619.133 424.924 620C424.857 620.8 424.69 621.867 424.424 623.2L423.324 628.3H386.924ZM402.724 609.4C399.59 609.4 396.857 610.2 394.524 611.8C392.257 613.333 390.557 615.233 389.424 617.5H412.824C412.824 614.967 412.024 613 410.424 611.6C408.89 610.133 406.324 609.4 402.724 609.4ZM474.754 614.2C474.888 613.667 474.954 613.2 474.954 612.8C474.954 610.933 474.054 610 472.254 610C471.188 610 470.388 610.367 469.854 611.1C469.321 611.767 468.954 612.6 468.754 613.6L461.154 649H448.554L455.954 614.2C456.088 613.533 456.154 613.067 456.154 612.8C456.154 610.933 455.288 610 453.554 610C451.621 610 450.421 611.2 449.954 613.6L442.354 649H429.854L440.354 599.4H452.954L451.954 604.2H453.754C454.288 602.133 455.288 600.6 456.754 599.6C458.221 598.533 459.888 598 461.754 598C463.954 598 465.621 598.6 466.754 599.8C467.888 601 468.621 602.467 468.954 604.2H470.754C471.488 602.4 472.588 600.933 474.054 599.8C475.588 598.6 477.554 598 479.954 598C482.754 598 484.888 598.9 486.354 600.7C487.888 602.5 488.654 604.667 488.654 607.2C488.654 607.667 488.621 608.1 488.554 608.5C488.554 608.833 488.488 609.267 488.354 609.8L482.454 637.1L483.454 637.8L486.854 635.4L493.154 644.8L488.654 647.8C487.321 648.733 485.954 649.4 484.554 649.8C483.221 650.2 481.888 650.4 480.554 650.4C479.088 650.4 477.688 650.133 476.354 649.6C475.088 649.133 473.954 648.433 472.954 647.5C471.954 646.567 471.154 645.433 470.554 644.1C470.021 642.7 469.754 641.133 469.754 639.4C469.754 638.467 469.888 637.333 470.154 636L474.754 614.2ZM540.785 637.1L541.785 637.8L546.585 634.4L552.885 643.8L546.985 647.8C544.385 649.533 541.651 650.4 538.785 650.4C536.251 650.4 533.985 649.7 531.985 648.3C529.985 646.9 528.718 644.933 528.185 642.4H526.385C525.785 643.533 525.085 644.6 524.285 645.6C523.485 646.533 522.485 647.367 521.285 648.1C520.151 648.767 518.785 649.3 517.185 649.7C515.651 650.167 513.818 650.4 511.685 650.4C509.085 650.4 506.685 649.9 504.485 648.9C502.285 647.833 500.351 646.4 498.685 644.6C497.085 642.733 495.818 640.567 494.885 638.1C493.951 635.633 493.485 632.933 493.485 630C493.485 625.533 494.085 621.367 495.285 617.5C496.485 613.633 498.218 610.267 500.485 607.4C502.751 604.467 505.518 602.167 508.785 600.5C512.118 598.833 515.851 598 519.985 598C523.651 598 526.551 598.733 528.685 600.2C530.818 601.667 532.251 603.6 532.985 606H534.785L536.185 599.4H548.785L540.785 637.1ZM516.585 638.4C518.985 638.4 521.118 637.933 522.985 637C524.851 636 526.385 634.7 527.585 633.1C528.851 631.5 529.818 629.633 530.485 627.5C531.151 625.3 531.485 623 531.485 620.6C531.485 617.467 530.585 614.933 528.785 613C526.985 611 524.585 610 521.585 610C519.185 610 517.051 610.5 515.185 611.5C513.318 612.433 511.751 613.7 510.485 615.3C509.218 616.9 508.251 618.8 507.585 621C506.918 623.133 506.585 625.4 506.585 627.8C506.585 630.6 507.385 633.067 508.985 635.2C510.651 637.333 513.185 638.4 516.585 638.4ZM591.415 647.8C590.082 648.733 588.715 649.4 587.315 649.8C585.915 650.2 584.549 650.4 583.215 650.4C581.749 650.4 580.349 650.133 579.015 649.6C577.682 649.133 576.515 648.467 575.515 647.6C574.515 646.667 573.715 645.567 573.115 644.3C572.582 642.967 572.315 641.5 572.315 639.9C572.315 638.7 572.449 637.533 572.715 636.4L583.615 590.9L582.615 590.2L569.215 599.4L562.915 590L577.415 580.2C578.749 579.267 580.115 578.6 581.515 578.2C582.915 577.8 584.282 577.6 585.615 577.6C587.082 577.6 588.482 577.867 589.815 578.4C591.149 578.867 592.315 579.567 593.315 580.5C594.315 581.367 595.082 582.467 595.615 583.8C596.215 585.067 596.515 586.5 596.515 588.1C596.515 589.167 596.382 590.333 596.115 591.6L585.215 637.1L586.215 637.8L599.615 628.6L605.915 638L591.415 647.8ZM631.846 628.3C631.712 628.833 631.646 629.4 631.646 630C631.646 632.4 632.546 634.4 634.346 636C636.212 637.6 638.646 638.4 641.646 638.4C644.779 638.4 647.279 637.833 649.146 636.7C651.012 635.567 652.446 634.233 653.446 632.7L663.446 639C662.646 640.333 661.579 641.667 660.246 643C658.979 644.333 657.379 645.567 655.446 646.7C653.579 647.767 651.346 648.633 648.746 649.3C646.212 650.033 643.246 650.4 639.846 650.4C636.779 650.4 633.946 649.933 631.346 649C628.812 648 626.612 646.667 624.746 645C622.946 643.267 621.512 641.233 620.446 638.9C619.446 636.5 618.946 633.867 618.946 631C618.946 626.467 619.612 622.2 620.946 618.2C622.346 614.2 624.346 610.7 626.946 607.7C629.546 604.7 632.746 602.333 636.546 600.6C640.346 598.867 644.712 598 649.646 598C653.112 598 656.112 598.567 658.646 599.7C661.246 600.767 663.379 602.233 665.046 604.1C666.712 605.9 667.946 607.967 668.746 610.3C669.612 612.633 670.046 615.033 670.046 617.5C670.046 618.3 669.979 619.133 669.846 620C669.779 620.8 669.612 621.867 669.346 623.2L668.246 628.3H631.846ZM647.646 609.4C644.512 609.4 641.779 610.2 639.446 611.8C637.179 613.333 635.479 615.233 634.346 617.5H657.746C657.746 614.967 656.946 613 655.346 611.6C653.812 610.133 651.246 609.4 647.646 609.4ZM727.976 566.5L738.376 572.4L686.476 661.5L675.976 655.6L727.976 566.5ZM251.348 777.4H253.148L266.648 714H279.248L264.348 784H239.748L244.448 720.6H242.648L229.148 784H216.648L231.448 714H256.048L251.348 777.4ZM334.378 753C334.378 757.667 333.711 762 332.378 766C331.045 769.933 329.078 773.333 326.478 776.2C323.878 779.067 320.611 781.333 316.678 783C312.811 784.6 308.311 785.4 303.178 785.4C300.245 785.4 297.478 784.967 294.878 784.1C292.345 783.233 290.111 781.967 288.178 780.3C286.245 778.567 284.711 776.467 283.578 774C282.445 771.533 281.878 768.733 281.878 765.6C281.878 760.467 282.678 755.9 284.278 751.9C285.878 747.833 288.045 744.4 290.778 741.6C293.578 738.8 296.845 736.667 300.578 735.2C304.378 733.733 308.445 733 312.778 733C315.911 733 318.811 733.5 321.478 734.5C324.145 735.433 326.411 736.767 328.278 738.5C330.211 740.233 331.711 742.333 332.778 744.8C333.845 747.267 334.378 750 334.378 753ZM305.078 773.6C307.478 773.533 309.678 773 311.678 772C313.745 771 315.478 769.7 316.878 768.1C318.345 766.433 319.478 764.5 320.278 762.3C321.078 760.1 321.478 757.767 321.478 755.3C321.478 751.833 320.545 749.233 318.678 747.5C316.811 745.7 314.311 744.8 311.178 744.8C308.778 744.8 306.578 745.333 304.578 746.4C302.578 747.4 300.845 748.767 299.378 750.5C297.911 752.167 296.778 754.1 295.978 756.3C295.178 758.5 294.778 760.8 294.778 763.2C294.778 766.6 295.711 769.2 297.578 771C299.445 772.733 301.945 773.6 305.078 773.6ZM377.709 755.2C377.975 753.933 378.109 752.867 378.109 752C378.109 749.6 377.409 747.733 376.009 746.4C374.609 745.067 372.709 744.4 370.309 744.4C367.309 744.4 364.742 745.467 362.609 747.6C360.475 749.733 359.042 752.6 358.309 756.2L352.409 784H339.809L350.309 734.4H362.409L360.709 742.4H362.509C364.109 739.067 366.209 736.667 368.809 735.2C371.475 733.733 374.409 733 377.609 733C381.809 733 385.142 734.267 387.609 736.8C390.142 739.333 391.409 742.9 391.409 747.5C391.409 748.567 391.342 749.567 391.209 750.5C391.075 751.367 390.909 752.333 390.709 753.4L386.709 772.1L387.709 772.8L392.009 769.8L398.309 779.2L392.909 782.8C390.375 784.533 387.675 785.4 384.809 785.4C383.342 785.4 381.942 785.133 380.609 784.6C379.275 784.133 378.109 783.467 377.109 782.6C376.109 781.667 375.309 780.567 374.709 779.3C374.109 777.967 373.809 776.467 373.809 774.8C373.809 773.933 373.909 772.933 374.109 771.8L377.709 755.2ZM416.039 750.8H447.239V762.2H416.039V750.8ZM462.47 771.4H469.07L478.57 726.6H471.97V714H501.87C505.203 714 508.103 714.433 510.57 715.3C513.036 716.1 515.07 717.233 516.67 718.7C518.27 720.167 519.436 721.9 520.17 723.9C520.97 725.9 521.37 728.033 521.37 730.3C521.37 732.833 520.936 735.1 520.07 737.1C519.27 739.033 518.136 740.733 516.67 742.2C515.203 743.667 513.503 744.9 511.57 745.9C509.703 746.9 507.67 747.667 505.47 748.2V750C508.136 750.8 510.303 752.233 511.97 754.3C513.636 756.367 514.47 759.267 514.47 763C514.47 765.933 513.836 768.667 512.57 771.2C511.37 773.733 509.67 775.967 507.47 777.9C505.27 779.767 502.636 781.267 499.57 782.4C496.57 783.467 493.27 784 489.67 784H462.47V771.4ZM482.07 771.4H490.67C493.936 771.4 496.636 770.6 498.77 769C500.97 767.4 502.07 765.1 502.07 762.1C502.07 759.633 501.336 757.867 499.87 756.8C498.47 755.733 496.536 755.2 494.07 755.2H485.47L482.07 771.4ZM488.17 742.6H496.77C500.236 742.6 502.97 741.833 504.97 740.3C507.036 738.7 508.07 736.367 508.07 733.3C508.07 731.1 507.37 729.433 505.97 728.3C504.57 727.167 502.636 726.6 500.17 726.6H491.57L488.17 742.6ZM561.5 782.8C560.167 783.733 558.8 784.4 557.4 784.8C556 785.2 554.633 785.4 553.3 785.4C551.833 785.4 550.433 785.133 549.1 784.6C547.767 784.133 546.6 783.467 545.6 782.6C544.6 781.667 543.8 780.567 543.2 779.3C542.667 777.967 542.4 776.5 542.4 774.9C542.4 773.633 542.533 772.467 542.8 771.4L548.8 746.3L547.8 745.6L534.4 754.8L528.1 745.4L542.6 735.6C543.933 734.667 545.3 734 546.7 733.6C548.1 733.2 549.467 733 550.8 733C552.267 733 553.667 733.267 555 733.8C556.333 734.267 557.5 734.967 558.5 735.9C559.5 736.767 560.267 737.867 560.8 739.2C561.4 740.467 561.7 741.9 561.7 743.5C561.7 744.767 561.567 745.933 561.3 747L555.3 772.1L556.3 772.8L569.7 763.6L576 773L561.5 782.8ZM570.2 719.7C570.2 721.033 569.933 722.3 569.4 723.5C568.933 724.633 568.267 725.633 567.4 726.5C566.533 727.3 565.5 727.967 564.3 728.5C563.167 728.967 561.967 729.2 560.7 729.2C559.367 729.2 558.133 728.967 557 728.5C555.867 727.967 554.867 727.3 554 726.5C553.133 725.633 552.433 724.633 551.9 723.5C551.433 722.3 551.2 721.033 551.2 719.7C551.2 718.367 551.433 717.133 551.9 716C552.433 714.8 553.133 713.8 554 713C554.867 712.133 555.867 711.467 557 711C558.133 710.467 559.367 710.2 560.7 710.2C561.967 710.2 563.167 710.467 564.3 711C565.5 711.467 566.533 712.133 567.4 713C568.267 713.8 568.933 714.8 569.4 716C569.933 717.133 570.2 718.367 570.2 719.7ZM622.63 755.2C622.897 753.933 623.03 752.867 623.03 752C623.03 749.6 622.33 747.733 620.93 746.4C619.53 745.067 617.63 744.4 615.23 744.4C612.23 744.4 609.664 745.467 607.53 747.6C605.397 749.733 603.964 752.6 603.23 756.2L597.33 784H584.73L595.23 734.4H607.33L605.63 742.4H607.43C609.03 739.067 611.13 736.667 613.73 735.2C616.397 733.733 619.33 733 622.53 733C626.73 733 630.064 734.267 632.53 736.8C635.064 739.333 636.33 742.9 636.33 747.5C636.33 748.567 636.264 749.567 636.13 750.5C635.997 751.367 635.83 752.333 635.63 753.4L631.63 772.1L632.63 772.8L636.93 769.8L643.23 779.2L637.83 782.8C635.297 784.533 632.597 785.4 629.73 785.4C628.264 785.4 626.864 785.133 625.53 784.6C624.197 784.133 623.03 783.467 622.03 782.6C621.03 781.667 620.23 780.567 619.63 779.3C619.03 777.967 618.73 776.467 618.73 774.8C618.73 773.933 618.83 772.933 619.03 771.8L622.63 755.2ZM693.861 772.1L694.861 772.8L699.661 769.4L705.961 778.8L700.061 782.8C697.461 784.533 694.728 785.4 691.861 785.4C689.328 785.4 687.061 784.7 685.061 783.3C683.061 781.9 681.794 779.933 681.261 777.4H679.461C678.861 778.533 678.161 779.6 677.361 780.6C676.561 781.533 675.561 782.367 674.361 783.1C673.228 783.767 671.861 784.3 670.261 784.7C668.728 785.167 666.894 785.4 664.761 785.4C662.161 785.4 659.761 784.9 657.561 783.9C655.361 782.833 653.428 781.4 651.761 779.6C650.161 777.733 648.894 775.567 647.961 773.1C647.028 770.633 646.561 767.933 646.561 765C646.561 760.533 647.161 756.367 648.361 752.5C649.561 748.633 651.294 745.267 653.561 742.4C655.828 739.467 658.594 737.167 661.861 735.5C665.194 733.833 668.928 733 673.061 733C676.728 733 679.628 733.733 681.761 735.2C683.894 736.667 685.328 738.6 686.061 741H687.861L689.261 734.4H701.861L693.861 772.1ZM669.661 773.4C672.061 773.4 674.194 772.933 676.061 772C677.928 771 679.461 769.7 680.661 768.1C681.928 766.5 682.894 764.633 683.561 762.5C684.228 760.3 684.561 758 684.561 755.6C684.561 752.467 683.661 749.933 681.861 748C680.061 746 677.661 745 674.661 745C672.261 745 670.128 745.5 668.261 746.5C666.394 747.433 664.828 748.7 663.561 750.3C662.294 751.9 661.328 753.8 660.661 756C659.994 758.133 659.661 760.4 659.661 762.8C659.661 765.6 660.461 768.067 662.061 770.2C663.728 772.333 666.261 773.4 669.661 773.4ZM724.991 746.2L723.991 745.6L716.091 751.4L709.391 742.4L717.391 736.4C718.925 735.267 720.525 734.433 722.191 733.9C723.925 733.3 725.558 733 727.091 733C729.758 733 732.091 733.733 734.091 735.2C736.091 736.667 737.291 738.733 737.691 741.4H739.491C740.825 738.6 742.691 736.5 745.091 735.1C747.491 733.7 750.191 733 753.191 733C756.991 733 760.058 734.2 762.391 736.6C764.791 738.933 765.991 742.2 765.991 746.4C765.991 747.267 765.925 748.133 765.791 749C765.725 749.8 765.558 750.8 765.291 752L764.791 754.2L751.391 755.2L751.691 753.8C751.891 752.8 751.991 751.9 751.991 751.1C751.991 749.167 751.458 747.633 750.391 746.5C749.325 745.367 747.725 744.8 745.591 744.8C742.925 744.8 740.791 745.7 739.191 747.5C737.658 749.3 736.525 751.867 735.791 755.2L732.191 772H744.191V784H709.991V772H719.591L724.991 746.2ZM791.222 763.2C791.089 763.667 790.989 764.167 790.922 764.7C790.855 765.233 790.822 765.767 790.822 766.3C790.822 768.833 791.555 770.767 793.022 772.1C794.489 773.367 796.489 774 799.022 774C802.622 774 805.389 772.833 807.322 770.5C809.255 768.167 810.689 764.8 811.622 760.4L817.122 734.4H829.722L816.622 796.2C816.155 798.467 815.055 800.333 813.322 801.8C811.589 803.267 809.589 804 807.322 804H778.322V792H802.222C804.022 792 805.122 791 805.522 789L808.122 776.8H806.322C804.855 779.8 802.989 782 800.722 783.4C798.455 784.733 795.622 785.4 792.222 785.4C790.222 785.4 788.355 785.033 786.622 784.3C784.889 783.633 783.355 782.667 782.022 781.4C780.689 780.067 779.622 778.467 778.822 776.6C778.089 774.667 777.722 772.467 777.722 770C777.722 768.333 777.922 766.6 778.322 764.8L782.222 746.3L781.222 745.6L775.222 749.8L768.922 740.4L776.222 735.5C777.489 734.633 778.789 734 780.122 733.6C781.455 733.2 782.789 733 784.122 733C785.589 733 786.989 733.267 788.322 733.8C789.655 734.267 790.822 734.967 791.822 735.9C792.822 736.767 793.622 737.867 794.222 739.2C794.822 740.467 795.122 741.933 795.122 743.6C795.122 744.533 795.022 745.533 794.822 746.6L791.222 763.2Z" fill="white"/>
</svg>
