<svg width="884" height="1326" viewBox="0 0 884 1326" fill="none" xmlns="http://www.w3.org/2000/svg">
<path d="M300.906 1031.75L300.906 1325.96L589.524 1325.96L589.524 1031.75L300.906 1031.75Z" fill="#AB5E18"/>
<path d="M266.423 1228.08C236.704 1228.08 212.613 1252.17 212.613 1281.89L212.613 1291.96C212.613 1310.73 227.836 1325.96 246.613 1325.96L589.525 1325.96L589.525 1228.08L266.423 1228.08Z" fill="#AB5E18"/>
<path d="M432.794 249.733C432.794 278.391 409.562 301.624 380.903 301.624C352.244 301.624 329.012 278.391 329.012 249.733C329.012 221.074 352.244 197.841 380.903 197.841C409.562 197.841 432.794 221.074 432.794 249.733Z" fill="#FFA7A7"/>
<path d="M432.794 249.733C432.794 278.391 409.562 301.624 380.903 301.624C352.244 301.624 329.012 278.391 329.012 249.733C329.012 221.074 352.244 197.841 380.903 197.841C409.562 197.841 432.794 221.074 432.794 249.733Z" fill="#AB5E18"/>
<path d="M883.919 1025.39C883.919 1050.55 863.523 1070.94 838.362 1070.94C813.201 1070.94 792.805 1050.55 792.805 1025.39C792.805 1000.23 813.201 979.83 838.362 979.83C863.523 979.83 883.919 1000.23 883.919 1025.39Z" fill="#FFA7A7"/>
<path d="M883.919 1025.39C883.919 1050.55 863.523 1070.94 838.362 1070.94C813.201 1070.94 792.805 1050.55 792.805 1025.39C792.805 1000.23 813.201 979.83 838.362 979.83C863.523 979.83 883.919 1000.23 883.919 1025.39Z" fill="#CA841D"/>
<mask id="path-5-outside-1_148_651" maskUnits="userSpaceOnUse" x="480.363" y="1031.75" width="298" height="295" fill="black">
<rect fill="white" x="480.363" y="1031.75" width="298" height="295"/>
<path d="M489.363 1031.75L489.363 1325.96L777.981 1325.96L777.981 1031.75L489.363 1031.75Z"/>
</mask>
<path d="M489.363 1031.75L489.363 1325.96L777.981 1325.96L777.981 1031.75L489.363 1031.75Z" fill="#CA841D"/>
<path d="M498.363 1031.75L498.363 1325.96L480.363 1325.96L480.363 1031.75L498.363 1031.75Z" fill="#AB5E18" mask="url(#path-5-outside-1_148_651)"/>
<path d="M294.726 434.066C301.732 361.065 350.636 211.693 490.203 198.215C514.841 195.835 633.005 201.296 685.681 322.458C758.126 489.092 750.613 542.85 805.49 657.283C955.387 969.854 799.185 1078.45 734.025 1128.99C668.866 1179.53 538.547 1181.63 490.203 1177.42C441.859 1173.21 221.014 1153.28 164.261 984.818C107.508 816.353 225.362 638.331 244.279 608.849C259.413 585.264 284.216 482.5 294.726 434.066Z" fill="#CA841D"/>
<path d="M495.299 357.731C495.299 372.04 506.899 383.64 521.208 383.64C535.517 383.64 547.117 372.04 547.117 357.731C547.117 343.422 535.517 331.822 521.208 331.822C506.899 331.822 495.299 343.422 495.299 357.731Z" fill="#FFA7A7"/>
<path d="M495.299 357.731C495.299 372.04 506.899 383.64 521.208 383.64C535.517 383.64 547.117 372.04 547.117 357.731C547.117 343.422 535.517 331.822 521.208 331.822C506.899 331.822 495.299 343.422 495.299 357.731Z" fill="#EE8C8C"/>
<path d="M495.299 357.731C495.299 372.04 506.899 383.64 521.208 383.64C535.517 383.64 547.117 372.04 547.117 357.731C547.117 343.422 535.517 331.822 521.208 331.822C506.899 331.822 495.299 343.422 495.299 357.731Z" fill="#E68A6D"/>
<path d="M495.299 357.731C495.299 372.04 506.899 383.64 521.208 383.64C535.517 383.64 547.117 372.04 547.117 357.731C547.117 343.422 535.517 331.822 521.208 331.822C506.899 331.822 495.299 343.422 495.299 357.731Z" fill="#E68A6D"/>
<path d="M375.912 388.735C375.912 418.034 399.663 441.786 428.963 441.786C458.262 441.786 482.014 418.034 482.014 388.735C482.014 359.435 458.262 335.684 428.963 335.684C399.663 335.684 375.912 359.435 375.912 388.735Z" fill="#AB5E18"/>
<path fill-rule="evenodd" clip-rule="evenodd" d="M452.51 386.563C452.51 388.493 452.13 390.405 451.391 392.188C450.653 393.971 449.57 395.592 448.205 396.957C446.84 398.321 445.22 399.404 443.436 400.143C441.653 400.881 439.742 401.262 437.812 401.262C435.881 401.262 433.97 400.881 432.187 400.143C430.403 399.404 428.783 398.321 427.418 396.957C426.053 395.592 424.971 393.971 424.232 392.188C423.493 390.405 423.113 388.493 423.113 386.563H416.717C416.717 389.333 417.262 392.076 418.323 394.636C419.383 397.195 420.936 399.521 422.895 401.479C424.854 403.438 427.18 404.992 429.739 406.052C432.298 407.112 435.041 407.658 437.812 407.658C440.582 407.658 443.325 407.112 445.884 406.052C448.443 404.992 450.769 403.438 452.728 401.479C454.687 399.521 456.24 397.195 457.301 394.636C458.361 392.076 458.906 389.333 458.906 386.563H452.51Z" fill="black"/>
<path d="M398.807 354.529C398.807 357.299 399.352 360.042 400.412 362.602C401.472 365.161 403.026 367.486 404.985 369.445C406.944 371.404 409.269 372.958 411.829 374.018C414.388 375.078 417.131 375.624 419.901 375.624C422.672 375.624 425.415 375.078 427.974 374.018C430.533 372.958 432.859 371.404 434.818 369.445C436.776 367.486 438.33 365.161 439.39 362.602C440.45 360.042 440.996 357.299 440.996 354.529L419.901 354.529H398.807Z" fill="black"/>
<path fill-rule="evenodd" clip-rule="evenodd" d="M416.696 386.563C416.696 388.493 416.315 390.405 415.577 392.188C414.838 393.971 413.755 395.592 412.39 396.957C411.026 398.321 409.405 399.404 407.622 400.143C405.839 400.881 403.927 401.262 401.997 401.262C400.067 401.262 398.155 400.881 396.372 400.143C394.589 399.404 392.969 398.321 391.604 396.957C390.239 395.592 389.156 393.971 388.417 392.188C387.679 390.405 387.299 388.493 387.299 386.563H380.902C380.902 389.333 381.448 392.076 382.508 394.636C383.568 397.195 385.122 399.521 387.081 401.479C389.04 403.438 391.365 404.992 393.924 406.052C396.484 407.112 399.227 407.658 401.997 407.658C404.767 407.658 407.51 407.112 410.07 406.052C412.629 404.992 414.954 403.438 416.913 401.479C418.872 399.521 420.426 397.195 421.486 394.636C422.546 392.076 423.092 389.333 423.092 386.563H416.696Z" fill="black"/>
<path fill-rule="evenodd" clip-rule="evenodd" d="M416.715 364.333L416.721 394.067L423.117 394.066L423.111 364.332L416.715 364.333Z" fill="black"/>
<circle cx="367.837" cy="339.16" r="15.3686" fill="black"/>
<circle cx="495.298" cy="342.362" r="15.3686" fill="black"/>
<path d="M632.167 321.147C600.421 324.203 572.209 300.945 569.153 269.199C566.097 237.453 589.355 209.241 621.101 206.185C652.847 203.129 681.059 226.387 684.115 258.133C687.171 289.879 663.913 318.091 632.167 321.147Z" fill="#FFA7A7"/>
<path d="M632.167 321.147C600.421 324.203 572.209 300.945 569.153 269.199C566.097 237.453 589.355 209.241 621.101 206.185C652.847 203.129 681.059 226.387 684.115 258.133C687.171 289.879 663.913 318.091 632.167 321.147Z" fill="#CA841D"/>
<path d="M632.167 321.147C600.421 324.203 572.209 300.945 569.153 269.199C566.097 237.453 589.355 209.241 621.101 206.185C652.847 203.129 681.059 226.387 684.115 258.133C687.171 289.879 663.913 318.091 632.167 321.147Z" stroke="#AB5E18" stroke-width="11" stroke-linejoin="round"/>
<path d="M629.695 295.482C612.123 297.173 596.507 284.299 594.815 266.727C593.124 249.155 605.997 233.539 623.57 231.847C641.142 230.156 656.758 243.03 658.449 260.602C660.141 278.174 647.267 293.79 629.695 295.482Z" fill="#FFA7A7"/>
<path d="M629.695 295.482C612.123 297.173 596.507 284.299 594.815 266.727C593.124 249.155 605.997 233.539 623.57 231.847C641.142 230.156 656.758 243.03 658.449 260.602C660.141 278.174 647.267 293.79 629.695 295.482Z" fill="#FAB7B7"/>
<ellipse cx="590.014" cy="299.078" rx="83.4137" ry="38.4599" transform="rotate(40.0344 590.014 299.078)" fill="#CA841D"/>
<mask id="mask0_148_651" style="mask-type:alpha" maskUnits="userSpaceOnUse" x="352" y="323" width="32" height="32">
<circle cx="367.837" cy="339.16" r="15.3686" fill="black"/>
</mask>
<g mask="url(#mask0_148_651)">
<circle cx="356.859" cy="326.994" r="9.33582" fill="white"/>
<circle cx="375.913" cy="354.04" r="14.8799" fill="white"/>
</g>
<mask id="mask1_148_651" style="mask-type:alpha" maskUnits="userSpaceOnUse" x="479" y="326" width="32" height="32">
<circle cx="495.298" cy="342.362" r="15.3686" fill="black"/>
</mask>
<g mask="url(#mask1_148_651)">
<circle cx="484.115" cy="331.822" r="9.33582" fill="white"/>
<circle cx="501.409" cy="355.371" r="13.0085" fill="white"/>
</g>
<path d="M169.236 923.028C169.236 965.169 238.167 1134.16 412.076 1115.68C516.898 1104.54 606.347 996.727 606.348 901.982C606.349 677.872 469.607 589.939 400.426 579.974C314.417 567.585 254.45 638.528 212.656 729.714C160.366 843.802 169.236 880.887 169.236 923.028Z" fill="#AB5E18"/>
<path d="M454.88 1228.08C425.162 1228.08 401.07 1252.17 401.07 1281.89L401.07 1291.96C401.07 1310.73 416.293 1325.96 435.07 1325.96L777.982 1325.96L777.982 1228.08L454.88 1228.08Z" fill="#CA841D"/>
<path d="M560.113 658.575C568.034 656.999 583.915 654.595 615.053 608.832C675.249 599.931 747.625 678.411 747.625 723.949C747.625 769.487 695.314 821.988 630.693 829.672C548.467 839.451 472.942 801.718 451.058 787.235C429.732 773.123 412.237 758.068 402.475 728.784C385.584 678.11 429.215 615.705 489.006 637.339C512.201 645.731 540.07 662.562 560.113 658.575Z" fill="#CA841D"/>
<path d="M615.053 608.832C583.915 654.595 568.034 656.999 560.113 658.575C540.07 662.562 512.201 645.731 489.006 637.339C429.215 615.705 385.584 678.11 402.475 728.784C412.237 758.068 429.732 773.122 451.058 787.235C472.942 801.718 548.467 839.451 630.693 829.672C695.314 821.988 747.625 769.487 747.625 723.949" stroke="#AB5E18" stroke-width="7"/>
<path d="M158.874 801.737C49.804 786.725 158.873 585.897 259.8 571.493C254.755 591.381 243.355 613.692 234.572 624.605C251.266 623.452 283.577 632.531 281.887 665.199C280.054 700.633 214.301 809.366 158.874 801.737Z" fill="#CA841D"/>
<path d="M158.875 801.737C214.303 809.366 280.056 700.634 281.889 665.199C283.578 632.531 251.267 623.452 234.573 624.606C217.476 625.787 198.374 636.318 188.612 644.202" stroke="#AB5E18" stroke-width="7"/>
<path d="M173.483 282.632C178.312 278.206 190.529 253.501 139.559 228.016V233.306L134.6 229.998C128.499 283.475 140.958 292.889 163.649 289.155L166.083 281.658L173.483 282.632Z" fill="#F3A5A5"/>
<path d="M133.13 122.267C124.09 113.438 119.599 91.2951 166.053 72.4039L164.504 78.4431L169.46 74.2623C175.56 127.739 155.61 117.078 142.965 128.79L140.629 120.71L133.13 122.267Z" fill="#FAB7B7"/>
<path d="M19.521 40.5201C40.9843 46.0669 53.524 31.5972 53.5239 0.487915C6.01643 5.31112 -5.80102 27.7387 2.39833 25.8094C8.95782 24.266 10.4371 25.1663 10.3568 25.8094C6.25708 28.8641 2.35037 36.0828 19.521 40.5201Z" fill="#FAB7B7"/>
<path d="M228.634 289.765C207.171 295.312 194.631 280.842 194.631 249.733C242.138 254.556 237.557 273.125 245.756 275.055C247.892 275.557 241.558 278.757 241.638 279.4C245.738 282.455 245.804 285.328 228.634 289.765Z" fill="#FAB7B7"/>
</svg>
