<svg width="1227" height="1188" viewBox="0 0 1227 1188" fill="none" xmlns="http://www.w3.org/2000/svg">
<path d="M687.156 65.2615C687.156 101.281 657.957 130.48 621.938 130.48C585.918 130.48 556.719 101.281 556.719 65.2615C556.719 29.2422 585.918 0.0427246 621.938 0.0427246C657.957 0.0427246 687.156 29.2422 687.156 65.2615Z" fill="#FFA7A7"/>
<path d="M687.156 65.2615C687.156 101.281 657.957 130.48 621.938 130.48C585.918 130.48 556.719 101.281 556.719 65.2615C556.719 29.2422 585.918 0.0427246 621.938 0.0427246C657.957 0.0427246 687.156 29.2422 687.156 65.2615Z" fill="#AB5E18"/>
<path d="M99.3374 999.707C99.3374 1026.99 77.2189 1049.11 49.9343 1049.11C22.6498 1049.11 0.53125 1026.99 0.53125 999.707C0.53125 972.422 22.6498 950.304 49.9343 950.304C77.2189 950.304 99.3374 972.422 99.3374 999.707Z" fill="#FFA7A7"/>
<path d="M99.3374 999.707C99.3374 1026.99 77.2189 1049.11 49.9343 1049.11C22.6498 1049.11 0.53125 1026.99 0.53125 999.707C0.53125 972.422 22.6498 950.304 49.9343 950.304C77.2189 950.304 99.3374 972.422 99.3374 999.707Z" fill="#AB5E18"/>
<path d="M892.227 584.871C886.541 500.408 773.451 434.625 717.617 412.291V632.584C778.189 651.872 897.912 669.333 892.227 584.871Z" fill="#AB5E18"/>
<path d="M248.607 196.119C296.621 37.6722 393.661 -1.24244 506.683 8.06308C720.746 39.1903 701.043 253.736 713.047 341.762C722.65 412.183 788.493 572.429 831.172 667.124C1113.26 684.748 994.768 1022.28 1025.06 1022.28C1089.74 1022.28 1112.04 1058.52 1104.79 1092.95C1099 1120.49 939.707 1110.92 860.788 1102.69C900.26 1132.72 897.087 1182.41 860.788 1182.41C517.746 1182.41 576.703 1158.4 544.694 1158.4C512.684 1158.4 324.629 1260.43 120.568 1080.38C-83.4921 900.327 26.5403 672.26 62.551 606.24C98.5617 540.221 188.588 394.178 248.607 196.119Z" fill="#CA841D"/>
<path d="M750.369 558.352C713.969 508.7 588.06 373.885 425.749 603.565C319.346 983.35 582.649 1046.65 770.207 986.967C957.766 927.286 807.776 636.659 750.369 558.352Z" fill="#AB5E18"/>
<path d="M544.694 1158.4C512.684 1158.4 324.629 1260.43 120.568 1080.38C171.273 985.019 326.087 586.438 578.704 794.296C806.367 784.608 790.345 976.905 784.103 1051.46L784.096 1051.54C782.608 1069.32 781.682 1080.38 784.765 1080.38C818.615 1080.38 843.698 1089.7 860.788 1102.7C900.26 1132.72 897.087 1182.41 860.788 1182.41C517.746 1182.41 576.703 1158.4 544.694 1158.4Z" fill="#CA841D"/>
<path d="M784.764 1080.38C818.614 1080.38 843.697 1089.69 860.787 1102.69C939.706 1110.92 1098.99 1120.49 1104.79 1092.95C1112.04 1058.52 1089.74 1022.28 1025.06 1022.28C994.767 1022.28 1113.26 684.747 831.171 667.123C862.041 736.55 953.354 931.852 784.102 1051.46L784.096 1051.54C782.607 1069.32 781.681 1080.38 784.764 1080.38Z" fill="#AB5E18"/>
<path d="M784.764 1080.38C781.677 1080.38 782.61 1069.29 784.102 1051.46C790.344 976.904 806.366 784.607 578.703 794.295" stroke="#AB5E18" stroke-width="7"/>
<path d="M480.846 291.069C480.848 255.628 520.528 210.715 544.168 205.841C614.395 191.362 643.61 292.87 614.763 303.906C564.736 331.508 480.843 342.728 480.846 291.069Z" fill="#AB5E18"/>
<path d="M589.433 234.927C589.433 238.409 588.748 241.856 587.415 245.073C586.083 248.289 584.13 251.212 581.668 253.674C579.206 256.136 576.283 258.089 573.067 259.421C569.85 260.754 566.403 261.44 562.921 261.44C559.439 261.44 555.992 260.754 552.775 259.421C549.558 258.089 546.635 256.136 544.174 253.674C541.712 251.212 539.759 248.289 538.426 245.073C537.094 241.856 536.408 238.409 536.408 234.927L562.921 234.927H589.433Z" fill="black"/>
<path fill-rule="evenodd" clip-rule="evenodd" d="M566.947 240.668L566.937 292.262L558.898 292.26L558.908 240.666L566.947 240.668Z" fill="black"/>
<path d="M604.067 283.562L579.994 290.165C584.815 308.896 605.335 331.654 618.779 317.001C627.186 307.839 617.624 290.959 604.067 283.562Z" fill="#9B2C2C"/>
<path fill-rule="evenodd" clip-rule="evenodd" d="M611.822 283.509L517.177 307.329L515.215 299.533L609.86 275.713L611.822 283.509Z" fill="black"/>
<path d="M457.439 258.957C457.439 276.942 442.86 291.521 424.876 291.521C406.892 291.521 392.312 276.942 392.312 258.957C392.312 240.973 406.892 226.394 424.876 226.394C442.86 226.394 457.439 240.973 457.439 258.957Z" fill="#FFA7A7"/>
<path d="M457.439 258.957C457.439 276.942 442.86 291.521 424.876 291.521C406.892 291.521 392.312 276.942 392.312 258.957C392.312 240.973 406.892 226.394 424.876 226.394C442.86 226.394 457.439 240.973 457.439 258.957Z" fill="#EE8C8C"/>
<path d="M457.439 258.957C457.439 276.942 442.86 291.521 424.876 291.521C406.892 291.521 392.312 276.942 392.312 258.957C392.312 240.973 406.892 226.394 424.876 226.394C442.86 226.394 457.439 240.973 457.439 258.957Z" fill="#E68A6D"/>
<path d="M457.439 258.957C457.439 276.942 442.86 291.521 424.876 291.521C406.892 291.521 392.312 276.942 392.312 258.957C392.312 240.973 406.892 226.394 424.876 226.394C442.86 226.394 457.439 240.973 457.439 258.957Z" fill="#E68A6D"/>
<path d="M690.916 243.15C690.916 261.134 676.337 275.713 658.352 275.713C640.368 275.713 625.789 261.134 625.789 243.15C625.789 225.166 640.368 210.587 658.352 210.587C676.337 210.587 690.916 225.166 690.916 243.15Z" fill="#FFA7A7"/>
<path d="M690.916 243.15C690.916 261.134 676.337 275.713 658.352 275.713C640.368 275.713 625.789 261.134 625.789 243.15C625.789 225.166 640.368 210.587 658.352 210.587C676.337 210.587 690.916 225.166 690.916 243.15Z" fill="#EE8C8C"/>
<path d="M690.916 243.15C690.916 261.134 676.337 275.713 658.352 275.713C640.368 275.713 625.789 261.134 625.789 243.15C625.789 225.166 640.368 210.587 658.352 210.587C676.337 210.587 690.916 225.166 690.916 243.15Z" fill="#E68A6D"/>
<path d="M690.916 243.15C690.916 261.134 676.337 275.713 658.352 275.713C640.368 275.713 625.789 261.134 625.789 243.15C625.789 225.166 640.368 210.587 658.352 210.587C676.337 210.587 690.916 225.166 690.916 243.15Z" fill="#E68A6D"/>
<circle r="19.3158" transform="matrix(-1 0 0 1 457.438 225.32)" fill="black"/>
<circle r="19.3158" transform="matrix(-1 0 0 1 625.788 212.072)" fill="black"/>
<path d="M323.451 158.217C363.35 162.058 398.809 132.826 402.649 92.9268C406.49 53.0275 377.259 17.5692 337.359 13.7285C297.46 9.88779 262.002 39.1191 258.161 79.0185C254.32 118.918 283.552 154.376 323.451 158.217Z" fill="#FFA7A7"/>
<path d="M323.451 158.217C363.35 162.058 398.809 132.826 402.649 92.9268C406.49 53.0275 377.259 17.5692 337.359 13.7285C297.46 9.88779 262.002 39.1191 258.161 79.0185C254.32 118.918 283.552 154.376 323.451 158.217Z" fill="#CA841D"/>
<path d="M323.451 158.217C363.35 162.058 398.809 132.826 402.649 92.9268C406.49 53.0275 377.259 17.5692 337.359 13.7285C297.46 9.88779 262.002 39.1191 258.161 79.0185C254.32 118.918 283.552 154.376 323.451 158.217Z" stroke="#AB5E18" stroke-width="11" stroke-linejoin="round"/>
<path d="M326.558 125.96C348.643 128.086 368.27 111.905 370.396 89.8201C372.522 67.7349 356.342 48.1078 334.257 45.9819C312.171 43.856 292.544 60.0362 290.418 82.1215C288.292 104.207 304.473 123.834 326.558 125.96Z" fill="#FFA7A7"/>
<path d="M326.558 125.96C348.643 128.086 368.27 111.905 370.396 89.8201C372.522 67.7349 356.342 48.1078 334.257 45.9819C312.171 43.856 292.544 60.0362 290.418 82.1215C288.292 104.207 304.473 123.834 326.558 125.96Z" fill="#FAB7B7"/>
<ellipse rx="104.837" ry="48.3378" transform="matrix(-0.765659 0.643247 0.643247 0.765659 376.431 130.48)" fill="#CA841D"/>
<path d="M487.024 586.867C401.162 595.598 394.68 537.046 386.191 503.696C374.468 436.175 119.779 439.605 207.007 661.05C218.649 701.07 261.883 742.607 282.5 755.644C312.159 774.398 389.282 818.949 510.799 755.644C603.939 796.392 647.18 728.881 643.595 690.155C638.752 637.836 572.886 578.135 487.024 586.867Z" fill="#CA841D"/>
<path d="M386.191 503.696C394.681 537.046 401.163 595.598 487.025 586.867C572.887 578.135 638.752 637.836 643.596 690.155C647.181 728.881 603.939 796.392 510.8 755.644C389.283 818.949 312.16 774.398 282.501 755.644C261.884 742.607 218.65 701.07 207.008 661.05" stroke="#AB5E18" stroke-width="7"/>
<rect x="509.047" y="763.189" width="545.186" height="30.7532" rx="5" fill="#403D4F"/>
<path d="M675.251 752.867L830.23 465.453C831.451 463.188 833.817 461.775 836.391 461.775H1203.16C1208.46 461.775 1211.84 467.434 1209.32 472.098L1054.35 759.511C1053.12 761.777 1050.76 763.189 1048.18 763.189H681.413C676.114 763.189 672.737 757.53 675.251 752.867Z" fill="#3D3461"/>
<rect x="1190.71" y="478.425" width="21.0669" height="17.9868" transform="rotate(-38.8002 1190.71 478.425)" fill="#3D3461"/>
<rect x="677.498" y="759.731" width="21.0669" height="17.9868" transform="rotate(-38.8002 677.498 759.731)" fill="#3D3461"/>
<path d="M686.578 766.962L841.556 479.548C842.777 477.283 845.143 475.871 847.717 475.871H1214.49C1219.78 475.871 1223.16 481.529 1220.65 486.193L1065.67 773.606C1064.45 775.872 1062.08 777.284 1059.51 777.284H692.739C687.44 777.284 684.063 771.626 686.578 766.962Z" fill="#6B6097"/>
<path d="M961.664 634.156C960.706 627.751 963.533 612.596 975.885 615.546C986.021 617.967 995.252 633.248 979.062 638.393C966.111 642.508 962.874 637.586 961.664 634.156Z" fill="#FFDF8B"/>
<ellipse cx="954.602" cy="621.275" rx="4.38313" ry="6.16389" transform="rotate(30.2422 954.602 621.275)" fill="#FFDF8B"/>
<ellipse cx="962.174" cy="607.637" rx="4.38313" ry="6.16389" transform="rotate(30.2422 962.174 607.637)" fill="#FFDF8B"/>
<ellipse cx="974.805" cy="604.52" rx="4.38313" ry="6.16389" transform="rotate(30.2422 974.805 604.52)" fill="#FFDF8B"/>
<ellipse cx="985.932" cy="608.935" rx="4.38313" ry="6.16389" transform="rotate(30.2422 985.932 608.935)" fill="#FFDF8B"/>
<path d="M765.115 308.445C761.249 308.445 758.115 311.579 758.115 315.445V321.845C758.115 325.711 761.249 328.845 765.115 328.845H768.465C771.165 328.845 772.515 330.345 772.515 333.195V382.245C772.515 391.245 778.815 397.545 787.815 397.545H799.715C803.581 397.545 806.715 394.411 806.715 390.545V387.145C806.715 383.279 803.581 380.145 799.715 380.145H795.465C792.765 380.145 791.415 378.645 791.415 375.645V331.695C791.415 324.945 786.765 319.695 779.715 319.695H778.365C777.785 319.695 777.315 319.225 777.315 318.645C777.315 318.065 777.785 317.595 778.365 317.595H779.715C786.765 317.595 791.415 312.345 791.415 305.595V261.645C791.415 258.645 792.765 257.145 795.465 257.145H799.715C803.581 257.145 806.715 254.011 806.715 250.145V246.745C806.715 242.879 803.581 239.745 799.715 239.745H787.815C778.815 239.745 772.515 246.045 772.515 255.045V304.095C772.515 306.945 771.165 308.445 768.465 308.445H765.115Z" fill="#DF5F17"/>
<path d="M1156.47 681.088C1156.47 677.222 1153.34 674.088 1149.47 674.088H1146.12C1143.42 674.088 1142.07 672.588 1142.07 669.738V620.688C1142.07 611.688 1135.77 605.388 1126.77 605.388H1114.87C1111 605.388 1107.87 608.522 1107.87 612.388V615.788C1107.87 619.654 1111 622.788 1114.87 622.788H1119.12C1121.82 622.788 1123.17 624.288 1123.17 627.288V671.238C1123.17 677.988 1127.82 683.238 1134.87 683.238H1136.22C1136.8 683.238 1137.27 683.708 1137.27 684.288C1137.27 684.868 1136.8 685.338 1136.22 685.338H1134.87C1127.82 685.338 1123.17 690.588 1123.17 697.338V741.288C1123.17 744.288 1121.82 745.788 1119.12 745.788H1114.87C1111 745.788 1107.87 748.922 1107.87 752.788V756.188C1107.87 760.054 1111 763.188 1114.87 763.188H1126.77C1135.77 763.188 1142.07 756.888 1142.07 747.888V698.838C1142.07 695.988 1143.42 694.488 1146.12 694.488H1149.47C1153.34 694.488 1156.47 691.354 1156.47 687.488V681.088Z" fill="#DF5F17"/>
<path d="M972.866 419.223C972.866 422.225 974.78 424.892 977.624 425.854L1026.62 442.421C1031.16 443.955 1035.87 440.58 1035.87 435.789V432.727C1035.87 429.648 1033.85 426.931 1030.91 426.032L992.457 414.289C991.69 414.055 991.166 413.347 991.166 412.545C991.166 411.743 991.69 411.035 992.457 410.801L1030.91 399.058C1033.85 398.159 1035.87 395.442 1035.87 392.364V389.301C1035.87 384.511 1031.16 381.135 1026.62 382.67L977.624 399.236C974.78 400.198 972.866 402.866 972.866 405.868V419.223Z" fill="#CD6ABD"/>
<path d="M1106.06 360.045C1103.03 360.045 1100.35 361.993 1099.41 364.871L1059.88 485.872C1058.4 490.397 1061.77 495.045 1066.53 495.045H1070.71C1073.73 495.045 1076.42 493.098 1077.36 490.219L1116.89 369.219C1118.36 364.694 1114.99 360.045 1110.23 360.045H1106.06Z" fill="#CD6ABD"/>
<path d="M1199.71 425.854C1202.56 424.892 1204.47 422.225 1204.47 419.223V405.868C1204.47 402.866 1202.56 400.198 1199.71 399.236L1150.71 382.67C1146.17 381.135 1141.47 384.511 1141.47 389.301V392.364C1141.47 395.442 1143.48 398.159 1146.43 399.058L1184.88 410.801C1185.65 411.035 1186.17 411.743 1186.17 412.545C1186.17 413.347 1185.65 414.055 1184.88 414.289L1146.43 426.032C1143.48 426.931 1141.47 429.648 1141.47 432.727V435.789C1141.47 440.58 1146.17 443.955 1150.71 442.42L1199.71 425.854Z" fill="#CD6ABD"/>
<path d="M1040.13 658.789C1040.13 667.189 1046.28 673.039 1054.38 673.039C1062.48 673.039 1068.63 667.189 1068.63 658.789C1068.63 650.389 1062.48 644.539 1054.38 644.539C1046.28 644.539 1040.13 650.389 1040.13 658.789ZM1040.13 709.038C1040.13 716.988 1046.28 722.388 1054.08 722.388C1055.54 722.388 1056.93 723.501 1056.93 724.96V726.888C1056.93 729.738 1055.73 731.088 1052.58 731.088H1046.13C1043.31 731.088 1041.03 733.371 1041.03 736.188C1041.03 739.005 1043.31 741.288 1046.13 741.288H1055.28C1062.93 741.288 1068.63 735.438 1068.63 727.788V708.738C1068.63 700.488 1062.48 694.638 1054.38 694.638C1046.28 694.638 1040.13 700.488 1040.13 709.038Z" fill="#76ADFF"/>
<path d="M824.894 350.745C824.894 359.145 831.044 364.995 839.144 364.995C847.244 364.995 853.394 359.145 853.394 350.745C853.394 342.345 847.244 336.495 839.144 336.495C831.044 336.495 824.894 342.345 824.894 350.745Z" fill="#F5B40D"/>
<path d="M867.228 350.745C867.228 359.145 873.378 364.995 881.478 364.995C889.578 364.995 895.728 359.145 895.728 350.745C895.728 342.345 889.578 336.495 881.478 336.495C873.378 336.495 867.228 342.345 867.228 350.745Z" fill="#F5B40D"/>
<path d="M909.562 350.745C909.562 359.145 915.712 364.995 923.812 364.995C931.912 364.995 938.062 359.145 938.062 350.745C938.062 342.345 931.912 336.495 923.812 336.495C915.712 336.495 909.562 342.345 909.562 350.745Z" fill="#F5B40D"/>
<path d="M847.912 105.643C847.912 108.129 849.926 110.143 852.412 110.143H864.112C866.1 110.143 867.712 108.532 867.712 106.543C867.712 96.3433 875.812 90.9433 886.612 90.9433C897.112 90.9433 904.012 96.3433 904.012 104.443C904.012 111.943 899.212 115.243 890.212 119.293L887.512 120.493C878.062 124.693 874.462 131.143 874.462 141.343C874.462 144.326 876.879 146.743 879.862 146.743H890.362C892.516 146.743 894.262 144.997 894.262 142.843C894.262 138.493 895.462 136.543 899.062 134.893L901.762 133.693C912.412 129.043 923.812 121.843 923.812 104.143V103.543C923.812 84.9433 907.912 72.3433 886.612 72.3433C865.012 72.3433 847.912 84.9433 847.912 105.643ZM870.112 167.293C870.112 175.693 876.262 181.543 884.362 181.543C892.462 181.543 898.612 175.693 898.612 167.293C898.612 158.893 892.462 153.043 884.362 153.043C876.262 153.043 870.112 158.893 870.112 167.293Z" fill="#71AD98"/>
<path d="M923.812 58.9933C923.812 61.4786 925.826 63.4933 928.312 63.4933H940.012C942 63.4933 943.612 61.8815 943.612 59.8933C943.612 49.6933 951.712 44.2933 962.512 44.2933C973.012 44.2933 979.912 49.6933 979.912 57.7933C979.912 65.2933 975.112 68.5933 966.112 72.6433L963.412 73.8433C953.962 78.0433 950.362 84.4933 950.362 94.6933C950.362 97.6756 952.779 100.093 955.762 100.093H966.262C968.416 100.093 970.162 98.3472 970.162 96.1933C970.162 91.8433 971.362 89.8933 974.962 88.2433L977.662 87.0433C988.312 82.3933 999.712 75.1933 999.712 57.4933V56.8933C999.712 38.2933 983.812 25.6932 962.512 25.6932C940.912 25.6932 923.812 38.2933 923.812 58.9933ZM946.012 120.643C946.012 129.043 952.162 134.893 960.262 134.893C968.362 134.893 974.512 129.043 974.512 120.643C974.512 112.243 968.362 106.393 960.262 106.393C952.162 106.393 946.012 112.243 946.012 120.643Z" fill="#71AD98"/>
<path d="M923.812 58.9933C923.812 61.4786 925.826 63.4933 928.312 63.4933H940.012C942 63.4933 943.612 61.8815 943.612 59.8933C943.612 49.6933 951.712 44.2933 962.512 44.2933C973.012 44.2933 979.912 49.6933 979.912 57.7933C979.912 65.2933 975.112 68.5933 966.112 72.6433L963.412 73.8433C953.962 78.0433 950.362 84.4933 950.362 94.6933C950.362 97.6756 952.779 100.093 955.762 100.093H966.262C968.416 100.093 970.162 98.3472 970.162 96.1933C970.162 91.8433 971.362 89.8933 974.962 88.2433L977.662 87.0433C988.312 82.3933 999.712 75.1933 999.712 57.4933V56.8933C999.712 38.2933 983.812 25.6932 962.512 25.6932C940.912 25.6932 923.812 38.2933 923.812 58.9933ZM946.012 120.643C946.012 129.043 952.162 134.893 960.262 134.893C968.362 134.893 974.512 129.043 974.512 120.643C974.512 112.243 968.362 106.393 960.262 106.393C952.162 106.393 946.012 112.243 946.012 120.643Z" fill="#B2C82D"/>
</svg>
