<svg width="387" height="365" viewBox="0 0 387 365" fill="none" xmlns="http://www.w3.org/2000/svg">
<path d="M380.607 71.1536C380.607 99.8123 357.374 123.045 328.715 123.045C300.057 123.045 276.824 99.8123 276.824 71.1536C276.824 42.4948 300.057 19.2623 328.715 19.2623C357.374 19.2623 380.607 42.4948 380.607 71.1536Z" fill="#FFA7A7"/>
<path d="M380.607 71.1536C380.607 99.8123 357.374 123.045 328.715 123.045C300.057 123.045 276.824 99.8123 276.824 71.1536C276.824 42.4948 300.057 19.2623 328.715 19.2623C357.374 19.2623 380.607 42.4948 380.607 71.1536Z" fill="#AB5E18"/>
<path d="M386.829 236.861C386.829 236.861 393.554 364.379 204.796 364.379C87.4843 364.379 -29.9635 259.177 6.89223 154.409C23.5572 107.036 87.4843 0 204.796 0C393.554 9.87792 386.829 236.861 386.829 236.861Z" fill="#CA841D"/>
<mask id="mask0_76_704" style="mask-type:alpha" maskUnits="userSpaceOnUse" x="0" y="0" width="387" height="365">
<path d="M386.829 236.861C386.829 236.861 393.554 364.379 204.796 364.379C87.4843 364.379 -29.9635 259.177 6.89223 154.409C23.5572 107.036 87.4843 0 204.796 0C393.554 9.87792 386.829 236.861 386.829 236.861Z" fill="#CA841D"/>
</mask>
<g mask="url(#mask0_76_704)">
<path d="M288.721 192.474C291.862 168.623 305.715 0.0230064 162.813 -8.9397C103.136 11.201 -13.7468 46.5069 1.32947 124.102C20.1748 221.095 285.58 216.325 288.721 192.474Z" fill="#95B9F0" stroke="#155B9D" stroke-width="10"/>
</g>
<path d="M186.847 65.2981C186.847 97.1907 160.993 123.045 129.1 123.045C97.2076 123.045 71.3535 97.1907 71.3535 65.2981C71.3535 33.4055 97.2076 7.55139 129.1 7.55139C160.993 7.55139 186.847 33.4055 186.847 65.2981Z" fill="#FFA7A7"/>
<path d="M186.847 65.2981C186.847 97.1907 160.993 123.045 129.1 123.045C97.2076 123.045 71.3535 97.1907 71.3535 65.2981C71.3535 33.4055 97.2076 7.55139 129.1 7.55139C160.993 7.55139 186.847 33.4055 186.847 65.2981Z" fill="#95B9F0"/>
<path d="M186.847 65.2981C186.847 97.1907 160.993 123.045 129.1 123.045C97.2076 123.045 71.3535 97.1907 71.3535 65.2981C71.3535 33.4055 97.2076 7.55139 129.1 7.55139C160.993 7.55139 186.847 33.4055 186.847 65.2981Z" stroke="#155B9D" stroke-width="11" stroke-linejoin="round"/>
<path d="M161.065 65.2981C161.065 82.9514 146.754 97.2623 129.101 97.2623C111.448 97.2623 97.1367 82.9514 97.1367 65.2981C97.1367 47.6447 111.448 33.3339 129.101 33.3339C146.754 33.3339 161.065 47.6447 161.065 65.2981Z" fill="#83B4FF"/>
<path d="M161.065 65.2981C161.065 82.9514 146.754 97.2623 129.101 97.2623C111.448 97.2623 97.1367 82.9514 97.1367 65.2981C97.1367 47.6447 111.448 33.3339 129.101 33.3339C146.754 33.3339 161.065 47.6447 161.065 65.2981Z" fill="#B9D5FE"/>
<path d="M338.723 216.497C338.723 245.797 314.971 269.548 285.672 269.548C256.373 269.548 232.621 245.797 232.621 216.497C232.621 187.198 256.373 163.447 285.672 163.447C314.971 163.447 338.723 187.198 338.723 216.497Z" fill="#AB5E18"/>
<path fill-rule="evenodd" clip-rule="evenodd" d="M262.127 214.326C262.127 216.256 262.507 218.168 263.246 219.951C263.984 221.734 265.067 223.355 266.432 224.72C267.797 226.084 269.417 227.167 271.2 227.906C272.984 228.645 274.895 229.025 276.825 229.025C278.755 229.025 280.667 228.645 282.45 227.906C284.233 227.167 285.854 226.084 287.219 224.72C288.584 223.355 289.666 221.734 290.405 219.951C291.144 218.168 291.524 216.256 291.524 214.326H297.92C297.92 217.096 297.374 219.839 296.314 222.399C295.254 224.958 293.7 227.284 291.741 229.242C289.783 231.201 287.457 232.755 284.898 233.815C282.338 234.875 279.595 235.421 276.825 235.421C274.055 235.421 271.312 234.875 268.753 233.815C266.193 232.755 263.868 231.201 261.909 229.242C259.95 227.284 258.396 224.958 257.336 222.399C256.276 219.839 255.73 217.096 255.73 214.326H262.127Z" fill="black"/>
<path d="M315.828 182.292C315.828 185.062 315.283 187.805 314.222 190.365C313.162 192.924 311.608 195.249 309.65 197.208C307.691 199.167 305.365 200.721 302.806 201.781C300.247 202.841 297.504 203.387 294.733 203.387C291.963 203.387 289.22 202.841 286.661 201.781C284.101 200.721 281.776 199.167 279.817 197.208C277.858 195.249 276.305 192.924 275.244 190.365C274.184 187.805 273.639 185.062 273.639 182.292L294.733 182.292H315.828Z" fill="black"/>
<path fill-rule="evenodd" clip-rule="evenodd" d="M297.939 214.326C297.939 216.256 298.319 218.168 299.058 219.951C299.797 221.734 300.879 223.355 302.244 224.72C303.609 226.084 305.23 227.167 307.013 227.906C308.796 228.645 310.707 229.025 312.638 229.025C314.568 229.025 316.479 228.645 318.263 227.906C320.046 227.167 321.666 226.084 323.031 224.72C324.396 223.355 325.479 221.734 326.217 219.951C326.956 218.168 327.336 216.256 327.336 214.326H333.732C333.732 217.096 333.187 219.839 332.127 222.399C331.067 224.958 329.513 227.284 327.554 229.242C325.595 231.201 323.27 232.755 320.71 233.815C318.151 234.875 315.408 235.421 312.638 235.421C309.868 235.421 307.124 234.875 304.565 233.815C302.006 232.755 299.68 231.201 297.721 229.242C295.763 227.284 294.209 224.958 293.149 222.399C292.089 219.839 291.543 217.096 291.543 214.326H297.939Z" fill="black"/>
<path fill-rule="evenodd" clip-rule="evenodd" d="M297.919 192.096L297.914 221.83L291.518 221.829L291.523 192.094L297.919 192.096Z" fill="black"/>
<path d="M236.968 161.261C236.968 167.937 231.556 173.35 224.88 173.35C218.203 173.35 212.791 167.937 212.791 161.261C212.791 154.585 218.203 149.172 224.88 149.172C231.556 149.172 236.968 154.585 236.968 161.261Z" fill="#E34615" stroke="black" stroke-width="9"/>
<path fill-rule="evenodd" clip-rule="evenodd" d="M350.874 159.919C350.478 158.439 349.793 157.051 348.86 155.835C347.927 154.619 346.764 153.599 345.436 152.832C344.109 152.066 342.644 151.568 341.124 151.368C339.604 151.168 338.06 151.27 336.58 151.666C335.099 152.063 333.712 152.747 332.496 153.68C331.28 154.613 330.259 155.777 329.493 157.104C328.727 158.432 328.229 159.897 328.029 161.416C327.829 162.936 327.93 164.48 328.327 165.961L320.852 167.964C320.192 165.502 320.024 162.934 320.356 160.406C320.689 157.879 321.516 155.442 322.791 153.235C324.065 151.027 325.762 149.092 327.784 147.541C329.807 145.989 332.115 144.851 334.577 144.191C337.039 143.531 339.607 143.363 342.134 143.696C344.661 144.028 347.098 144.856 349.306 146.13C351.513 147.405 353.448 149.101 355 151.124C356.552 153.146 357.69 155.454 358.35 157.916L350.874 159.919Z" fill="black"/>
<ellipse cx="160.843" cy="105.141" rx="83.4137" ry="38.4599" transform="rotate(-44.4673 160.843 105.141)" fill="#95B9F0"/>
</svg>
