<svg width="972" height="951" viewBox="0 0 972 951" fill="none" xmlns="http://www.w3.org/2000/svg">
<ellipse cx="486" cy="475.5" rx="486" ry="475.5" fill="#F5B40D"/>
<path d="M381.386 382.5V414H254.886L262.136 379.5C264.136 369.667 267.136 361.417 271.136 354.75C275.302 347.917 280.302 342.333 286.136 338C292.136 333.5 299.052 330 306.886 327.5C314.719 324.833 323.469 322.667 333.136 321C338.136 320.167 342.969 319 347.636 317.5C352.469 315.833 356.719 313.75 360.386 311.25C364.219 308.75 367.219 305.583 369.386 301.75C371.719 297.917 372.886 293.333 372.886 288C372.886 281.667 370.802 276.583 366.636 272.75C362.469 268.917 356.386 267 348.386 267C338.552 267 330.302 269.917 323.636 275.75C317.136 281.417 312.802 289.333 310.636 299.5L308.386 310.5H275.386L278.386 296.5C282.552 277.167 290.886 262.167 303.386 251.5C316.052 240.833 332.552 235.5 352.886 235.5C361.219 235.5 368.719 236.833 375.386 239.5C382.052 242 387.636 245.5 392.136 250C396.802 254.333 400.386 259.417 402.886 265.25C405.386 271.083 406.636 277.167 406.636 283.5C406.636 301.667 400.969 316.167 389.636 327C378.469 337.667 362.719 345.167 342.386 349.5C333.386 351.333 326.052 353.25 320.386 355.25C314.719 357.25 310.219 359.417 306.886 361.75C303.552 364.083 301.052 366.75 299.386 369.75C297.886 372.583 296.636 375.833 295.636 379.5L294.886 382.5H381.386ZM465.712 326.5C465.712 320.833 467.795 315.917 471.962 311.75C476.129 307.583 481.045 305.5 486.712 305.5C492.379 305.5 497.295 307.583 501.462 311.75C505.629 315.917 507.712 320.833 507.712 326.5C507.712 332.167 505.629 337.083 501.462 341.25C497.295 345.417 492.379 347.5 486.712 347.5C481.045 347.5 476.129 345.417 471.962 341.25C467.795 337.083 465.712 332.167 465.712 326.5ZM426.212 307C431.379 282.333 440.295 264.25 452.962 252.75C465.629 241.25 482.629 235.5 503.962 235.5C512.295 235.5 519.712 236.917 526.212 239.75C532.879 242.583 538.462 246.5 542.962 251.5C547.462 256.333 550.879 262.083 553.212 268.75C555.712 275.417 556.962 282.583 556.962 290.25C556.962 296.083 556.379 301.667 555.212 307L546.962 346C541.795 370.667 532.879 388.75 520.212 400.25C507.545 411.75 490.545 417.5 469.212 417.5C460.879 417.5 453.379 416.083 446.712 413.25C440.212 410.417 434.712 406.583 430.212 401.75C425.712 396.75 422.212 390.917 419.712 384.25C417.379 377.583 416.212 370.417 416.212 362.75C416.212 356.917 416.795 351.333 417.962 346L426.212 307ZM474.212 387.5C485.212 387.5 493.795 384 499.962 377C506.295 370 510.629 361 512.962 350L522.712 305C523.712 300.5 524.212 296.25 524.212 292.25C524.212 284.083 522.129 277.583 517.962 272.75C513.795 267.917 507.462 265.5 498.962 265.5C487.962 265.5 479.295 269 472.962 276C466.795 283 462.545 292 460.212 303L450.462 348C449.462 352.5 448.962 356.75 448.962 360.75C448.962 368.917 451.045 375.417 455.212 380.25C459.379 385.083 465.712 387.5 474.212 387.5ZM618.788 326.5C618.788 320.833 620.871 315.917 625.038 311.75C629.205 307.583 634.121 305.5 639.788 305.5C645.455 305.5 650.371 307.583 654.538 311.75C658.705 315.917 660.788 320.833 660.788 326.5C660.788 332.167 658.705 337.083 654.538 341.25C650.371 345.417 645.455 347.5 639.788 347.5C634.121 347.5 629.205 345.417 625.038 341.25C620.871 337.083 618.788 332.167 618.788 326.5ZM579.288 307C584.455 282.333 593.371 264.25 606.038 252.75C618.705 241.25 635.705 235.5 657.038 235.5C665.371 235.5 672.788 236.917 679.288 239.75C685.955 242.583 691.538 246.5 696.038 251.5C700.538 256.333 703.955 262.083 706.288 268.75C708.788 275.417 710.038 282.583 710.038 290.25C710.038 296.083 709.455 301.667 708.288 307L700.038 346C694.871 370.667 685.955 388.75 673.288 400.25C660.621 411.75 643.621 417.5 622.288 417.5C613.955 417.5 606.455 416.083 599.788 413.25C593.288 410.417 587.788 406.583 583.288 401.75C578.788 396.75 575.288 390.917 572.788 384.25C570.455 377.583 569.288 370.417 569.288 362.75C569.288 356.917 569.871 351.333 571.038 346L579.288 307ZM627.288 387.5C638.288 387.5 646.871 384 653.038 377C659.371 370 663.705 361 666.038 350L675.788 305C676.788 300.5 677.288 296.25 677.288 292.25C677.288 284.083 675.205 277.583 671.038 272.75C666.871 267.917 660.538 265.5 652.038 265.5C641.038 265.5 632.371 269 626.038 276C619.871 283 615.621 292 613.288 303L603.538 348C602.538 352.5 602.038 356.75 602.038 360.75C602.038 368.917 604.121 375.417 608.288 380.25C612.455 385.083 618.788 387.5 627.288 387.5ZM287.278 501.5C287.478 500.5 287.578 499.6 287.578 498.8C287.578 496.2 286.645 494.1 284.778 492.5C282.911 490.833 280.045 490 276.178 490C274.645 490 273.145 490.167 271.678 490.5C270.211 490.833 268.911 491.367 267.778 492.1C266.645 492.767 265.745 493.633 265.078 494.7C264.411 495.767 264.078 497 264.078 498.4C264.078 500.733 265.045 502.567 266.978 503.9C268.978 505.233 272.178 506.267 276.578 507C282.778 508 287.645 510 291.178 513C294.778 515.933 296.578 520.233 296.578 525.9C296.578 529.7 295.878 533.1 294.478 536.1C293.145 539.1 291.211 541.667 288.678 543.8C286.211 545.933 283.211 547.567 279.678 548.7C276.145 549.833 272.178 550.4 267.778 550.4C263.578 550.4 259.911 549.867 256.778 548.8C253.645 547.667 251.045 546.167 248.978 544.3C246.978 542.367 245.478 540.133 244.478 537.6C243.478 535.067 242.978 532.333 242.978 529.4C242.978 528.533 243.011 527.667 243.078 526.8C243.145 525.933 243.278 525.033 243.478 524.1L243.978 521.8H257.178L256.778 523.5C256.511 524.767 256.378 526.2 256.378 527.8C256.378 531 257.378 533.5 259.378 535.3C261.445 537.1 264.511 538 268.578 538C272.978 538 276.411 537.1 278.878 535.3C281.345 533.433 282.578 530.9 282.578 527.7C282.578 525.167 281.511 523.2 279.378 521.8C277.311 520.4 273.811 519.333 268.878 518.6C266.545 518.267 264.245 517.667 261.978 516.8C259.778 515.933 257.811 514.733 256.078 513.2C254.345 511.667 252.945 509.8 251.878 507.6C250.811 505.333 250.278 502.667 250.278 499.6C250.278 496.467 250.845 493.567 251.978 490.9C253.178 488.167 254.911 485.833 257.178 483.9C259.511 481.9 262.345 480.367 265.678 479.3C269.078 478.167 272.978 477.6 277.378 477.6C281.111 477.6 284.445 478.067 287.378 479C290.311 479.933 292.778 481.233 294.778 482.9C296.845 484.567 298.411 486.567 299.478 488.9C300.545 491.167 301.078 493.633 301.078 496.3C301.078 497.033 301.045 497.767 300.978 498.5C300.911 499.233 300.778 500.067 300.578 501L300.178 502.8H286.978L287.278 501.5ZM324.609 511.4H310.609V499.4H327.209L331.809 477.6H344.409L339.809 499.4H357.009V511.4H337.209L331.609 537.1L332.609 537.8L346.009 528.6L352.309 538L337.809 547.8C335.275 549.533 332.575 550.4 329.709 550.4C328.242 550.4 326.842 550.133 325.509 549.6C324.175 549.133 323.009 548.433 322.009 547.5C321.009 546.567 320.209 545.433 319.609 544.1C319.009 542.767 318.709 541.267 318.709 539.6C318.709 539.067 318.742 538.6 318.809 538.2C318.875 537.733 318.975 537.133 319.109 536.4L324.609 511.4ZM386.339 499.4L380.139 528.2C379.872 529.333 379.739 530.433 379.739 531.5C379.739 534.033 380.439 535.933 381.839 537.2C383.239 538.4 385.106 539 387.439 539C390.972 539 393.672 537.867 395.539 535.6C397.472 533.267 398.906 530 399.839 525.8L405.439 499.4H418.039L409.839 537.2L410.939 537.8L414.539 535.2L420.839 544.4L416.139 547.8C414.872 548.733 413.539 549.4 412.139 549.8C410.806 550.2 409.472 550.4 408.139 550.4C405.406 550.4 403.006 549.633 400.939 548.1C398.872 546.5 397.706 544.2 397.439 541.2H395.639C394.172 544.6 392.172 547 389.639 548.4C387.172 549.733 384.372 550.4 381.239 550.4C376.906 550.4 373.372 549.1 370.639 546.5C367.906 543.833 366.539 540.133 366.539 535.4C366.539 533.733 366.739 531.933 367.139 530L373.739 499.4H386.339ZM473.17 537.1L474.17 537.8L479.57 534L485.87 543.4L479.37 547.8C477.97 548.733 476.57 549.4 475.17 549.8C473.836 550.2 472.503 550.4 471.17 550.4C468.636 550.4 466.37 549.7 464.37 548.3C462.37 546.9 461.103 544.933 460.57 542.4H458.77C458.17 543.533 457.47 544.6 456.67 545.6C455.87 546.533 454.87 547.367 453.67 548.1C452.536 548.767 451.17 549.3 449.57 549.7C448.036 550.167 446.203 550.4 444.07 550.4C441.47 550.4 439.07 549.9 436.87 548.9C434.67 547.833 432.736 546.4 431.07 544.6C429.47 542.733 428.203 540.567 427.27 538.1C426.336 535.633 425.87 532.933 425.87 530C425.87 525.533 426.47 521.367 427.67 517.5C428.87 513.633 430.603 510.267 432.87 507.4C435.136 504.467 437.903 502.167 441.17 500.5C444.503 498.833 448.236 498 452.37 498C455.903 498 458.77 498.8 460.97 500.4C463.17 502 464.603 504.067 465.27 506.6H467.07L473.17 477.6H485.87L479.67 506.6L473.17 537.1ZM448.97 538.4C451.37 538.4 453.503 537.933 455.37 537C457.236 536 458.77 534.7 459.97 533.1C461.236 531.5 462.203 529.633 462.87 527.5C463.536 525.3 463.87 523 463.87 520.6C463.87 517.467 462.97 514.933 461.17 513C459.37 511 456.97 510 453.97 510C451.57 510 449.436 510.5 447.57 511.5C445.703 512.433 444.136 513.7 442.87 515.3C441.603 516.9 440.636 518.8 439.97 521C439.303 523.133 438.97 525.4 438.97 527.8C438.97 530.6 439.77 533.067 441.37 535.2C443.036 537.333 445.57 538.4 448.97 538.4ZM503 528.3C502.867 528.833 502.8 529.4 502.8 530C502.8 532.4 503.7 534.4 505.5 536C507.367 537.6 509.8 538.4 512.8 538.4C515.933 538.4 518.433 537.833 520.3 536.7C522.167 535.567 523.6 534.233 524.6 532.7L534.6 539C533.8 540.333 532.733 541.667 531.4 543C530.133 544.333 528.533 545.567 526.6 546.7C524.733 547.767 522.5 548.633 519.9 549.3C517.367 550.033 514.4 550.4 511 550.4C507.933 550.4 505.1 549.933 502.5 549C499.967 548 497.767 546.667 495.9 545C494.1 543.267 492.667 541.233 491.6 538.9C490.6 536.5 490.1 533.867 490.1 531C490.1 526.467 490.767 522.2 492.1 518.2C493.5 514.2 495.5 510.7 498.1 507.7C500.7 504.7 503.9 502.333 507.7 500.6C511.5 498.867 515.867 498 520.8 498C524.267 498 527.267 498.567 529.8 499.7C532.4 500.767 534.533 502.233 536.2 504.1C537.867 505.9 539.1 507.967 539.9 510.3C540.767 512.633 541.2 515.033 541.2 517.5C541.2 518.3 541.133 519.133 541 520C540.933 520.8 540.767 521.867 540.5 523.2L539.4 528.3H503ZM518.8 509.4C515.667 509.4 512.933 510.2 510.6 511.8C508.333 513.333 506.633 515.233 505.5 517.5H528.9C528.9 514.967 528.1 513 526.5 511.6C524.967 510.133 522.4 509.4 518.8 509.4ZM585.63 520.2C585.897 518.933 586.03 517.867 586.03 517C586.03 514.6 585.33 512.733 583.93 511.4C582.53 510.067 580.63 509.4 578.23 509.4C575.23 509.4 572.664 510.467 570.53 512.6C568.397 514.733 566.964 517.6 566.23 521.2L560.33 549H547.73L558.23 499.4H570.33L568.63 507.4H570.43C572.03 504.067 574.13 501.667 576.73 500.2C579.397 498.733 582.33 498 585.53 498C589.73 498 593.064 499.267 595.53 501.8C598.064 504.333 599.33 507.9 599.33 512.5C599.33 513.567 599.264 514.567 599.13 515.5C598.997 516.367 598.83 517.333 598.63 518.4L594.63 537.1L595.63 537.8L599.93 534.8L606.23 544.2L600.83 547.8C598.297 549.533 595.597 550.4 592.73 550.4C591.264 550.4 589.864 550.133 588.53 549.6C587.197 549.133 586.03 548.467 585.03 547.6C584.03 546.667 583.23 545.567 582.63 544.3C582.03 542.967 581.73 541.467 581.73 539.8C581.73 538.933 581.83 537.933 582.03 536.8L585.63 520.2ZM630.761 511.4H616.761V499.4H633.361L637.961 477.6H650.561L645.961 499.4H663.161V511.4H643.361L637.761 537.1L638.761 537.8L652.161 528.6L658.461 538L643.961 547.8C641.428 549.533 638.728 550.4 635.861 550.4C634.394 550.4 632.994 550.133 631.661 549.6C630.328 549.133 629.161 548.433 628.161 547.5C627.161 546.567 626.361 545.433 625.761 544.1C625.161 542.767 624.861 541.267 624.861 539.6C624.861 539.067 624.894 538.6 624.961 538.2C625.028 537.733 625.128 537.133 625.261 536.4L630.761 511.4ZM702.391 509.4C701.658 509.4 700.891 509.5 700.091 509.7C699.358 509.833 698.658 510.067 697.991 510.4C697.325 510.733 696.758 511.2 696.291 511.8C695.891 512.333 695.691 513 695.691 513.8C695.691 515.2 696.491 516.233 698.091 516.9C699.691 517.567 702.425 518.133 706.291 518.6C710.625 519.133 714.125 520.467 716.791 522.6C719.458 524.667 720.791 527.667 720.791 531.6C720.791 537.467 718.725 542.067 714.591 545.4C710.525 548.733 704.858 550.4 697.591 550.4C693.925 550.4 690.758 549.867 688.091 548.8C685.491 547.733 683.325 546.4 681.591 544.8C679.925 543.2 678.658 541.433 677.791 539.5C676.925 537.567 676.458 535.733 676.391 534L688.791 531C688.991 533.2 689.925 535.1 691.591 536.7C693.258 538.233 695.791 539 699.191 539C701.525 539 703.558 538.633 705.291 537.9C707.025 537.167 707.891 535.867 707.891 534C707.891 532.6 707.225 531.5 705.891 530.7C704.558 529.833 702.091 529.233 698.491 528.9C693.691 528.5 689.858 527.133 686.991 524.8C684.191 522.467 682.791 519.367 682.791 515.5C682.791 512.7 683.358 510.2 684.491 508C685.691 505.8 687.258 503.967 689.191 502.5C691.125 501.033 693.358 499.933 695.891 499.2C698.491 498.4 701.191 498 703.991 498C707.458 498 710.358 498.467 712.691 499.4C715.025 500.333 716.925 501.5 718.391 502.9C719.858 504.3 720.925 505.833 721.591 507.5C722.325 509.1 722.791 510.6 722.991 512L710.791 515.2C710.525 513.4 709.691 512 708.291 511C706.891 509.933 704.925 509.4 702.391 509.4ZM137.817 657.6L132.217 684H119.117L133.917 614H158.917C161.851 614 164.484 614.467 166.817 615.4C169.217 616.333 171.251 617.633 172.917 619.3C174.584 620.967 175.851 622.933 176.717 625.2C177.651 627.467 178.117 629.933 178.117 632.6C178.117 636.333 177.484 639.733 176.217 642.8C174.951 645.867 173.151 648.5 170.817 650.7C168.484 652.9 165.684 654.6 162.417 655.8C159.151 657 155.517 657.6 151.517 657.6H137.817ZM140.517 645H152.717C156.117 645 158.951 644 161.217 642C163.484 640 164.617 637.4 164.617 634.2C164.617 631.733 163.817 629.867 162.217 628.6C160.684 627.267 158.651 626.6 156.117 626.6H144.417L140.517 645ZM196.848 663.3C196.714 663.833 196.648 664.4 196.648 665C196.648 667.4 197.548 669.4 199.348 671C201.214 672.6 203.648 673.4 206.648 673.4C209.781 673.4 212.281 672.833 214.148 671.7C216.014 670.567 217.448 669.233 218.448 667.7L228.448 674C227.648 675.333 226.581 676.667 225.248 678C223.981 679.333 222.381 680.567 220.448 681.7C218.581 682.767 216.348 683.633 213.748 684.3C211.214 685.033 208.248 685.4 204.848 685.4C201.781 685.4 198.948 684.933 196.348 684C193.814 683 191.614 681.667 189.748 680C187.948 678.267 186.514 676.233 185.448 673.9C184.448 671.5 183.948 668.867 183.948 666C183.948 661.467 184.614 657.2 185.948 653.2C187.348 649.2 189.348 645.7 191.948 642.7C194.548 639.7 197.748 637.333 201.548 635.6C205.348 633.867 209.714 633 214.648 633C218.114 633 221.114 633.567 223.648 634.7C226.248 635.767 228.381 637.233 230.048 639.1C231.714 640.9 232.948 642.967 233.748 645.3C234.614 647.633 235.048 650.033 235.048 652.5C235.048 653.3 234.981 654.133 234.848 655C234.781 655.8 234.614 656.867 234.348 658.2L233.248 663.3H196.848ZM212.648 644.4C209.514 644.4 206.781 645.2 204.448 646.8C202.181 648.333 200.481 650.233 199.348 652.5H222.748C222.748 649.967 221.948 648 220.348 646.6C218.814 645.133 216.248 644.4 212.648 644.4ZM259.378 646.2L258.378 645.6L250.478 651.4L243.778 642.4L251.778 636.4C253.311 635.267 254.911 634.433 256.578 633.9C258.311 633.3 259.945 633 261.478 633C264.145 633 266.478 633.733 268.478 635.2C270.478 636.667 271.678 638.733 272.078 641.4H273.878C275.211 638.6 277.078 636.5 279.478 635.1C281.878 633.7 284.578 633 287.578 633C291.378 633 294.445 634.2 296.778 636.6C299.178 638.933 300.378 642.2 300.378 646.4C300.378 647.267 300.311 648.133 300.178 649C300.111 649.8 299.945 650.8 299.678 652L299.178 654.2L285.778 655.2L286.078 653.8C286.278 652.8 286.378 651.9 286.378 651.1C286.378 649.167 285.845 647.633 284.778 646.5C283.711 645.367 282.111 644.8 279.978 644.8C277.311 644.8 275.178 645.7 273.578 647.5C272.045 649.3 270.911 651.867 270.178 655.2L266.578 672H278.578V684H244.378V672H253.978L259.378 646.2ZM409.739 636.5C409.939 635.5 410.039 634.6 410.039 633.8C410.039 631.2 409.106 629.1 407.239 627.5C405.372 625.833 402.506 625 398.639 625C397.106 625 395.606 625.167 394.139 625.5C392.672 625.833 391.372 626.367 390.239 627.1C389.106 627.767 388.206 628.633 387.539 629.7C386.872 630.767 386.539 632 386.539 633.4C386.539 635.733 387.506 637.567 389.439 638.9C391.439 640.233 394.639 641.267 399.039 642C405.239 643 410.106 645 413.639 648C417.239 650.933 419.039 655.233 419.039 660.9C419.039 664.7 418.339 668.1 416.939 671.1C415.606 674.1 413.672 676.667 411.139 678.8C408.672 680.933 405.672 682.567 402.139 683.7C398.606 684.833 394.639 685.4 390.239 685.4C386.039 685.4 382.372 684.867 379.239 683.8C376.106 682.667 373.506 681.167 371.439 679.3C369.439 677.367 367.939 675.133 366.939 672.6C365.939 670.067 365.439 667.333 365.439 664.4C365.439 663.533 365.472 662.667 365.539 661.8C365.606 660.933 365.739 660.033 365.939 659.1L366.439 656.8H379.639L379.239 658.5C378.972 659.767 378.839 661.2 378.839 662.8C378.839 666 379.839 668.5 381.839 670.3C383.906 672.1 386.972 673 391.039 673C395.439 673 398.872 672.1 401.339 670.3C403.806 668.433 405.039 665.9 405.039 662.7C405.039 660.167 403.972 658.2 401.839 656.8C399.772 655.4 396.272 654.333 391.339 653.6C389.006 653.267 386.706 652.667 384.439 651.8C382.239 650.933 380.272 649.733 378.539 648.2C376.806 646.667 375.406 644.8 374.339 642.6C373.272 640.333 372.739 637.667 372.739 634.6C372.739 631.467 373.306 628.567 374.439 625.9C375.639 623.167 377.372 620.833 379.639 618.9C381.972 616.9 384.806 615.367 388.139 614.3C391.539 613.167 395.439 612.6 399.839 612.6C403.572 612.6 406.906 613.067 409.839 614C412.772 614.933 415.239 616.233 417.239 617.9C419.306 619.567 420.872 621.567 421.939 623.9C423.006 626.167 423.539 628.633 423.539 631.3C423.539 632.033 423.506 632.767 423.439 633.5C423.372 634.233 423.239 635.067 423.039 636L422.639 637.8H409.439L409.739 636.5ZM441.77 663.3C441.636 663.833 441.57 664.4 441.57 665C441.57 667.4 442.47 669.4 444.27 671C446.136 672.6 448.57 673.4 451.57 673.4C454.703 673.4 457.203 672.833 459.07 671.7C460.936 670.567 462.37 669.233 463.37 667.7L473.37 674C472.57 675.333 471.503 676.667 470.17 678C468.903 679.333 467.303 680.567 465.37 681.7C463.503 682.767 461.27 683.633 458.67 684.3C456.136 685.033 453.17 685.4 449.77 685.4C446.703 685.4 443.87 684.933 441.27 684C438.736 683 436.536 681.667 434.67 680C432.87 678.267 431.436 676.233 430.37 673.9C429.37 671.5 428.87 668.867 428.87 666C428.87 661.467 429.536 657.2 430.87 653.2C432.27 649.2 434.27 645.7 436.87 642.7C439.47 639.7 442.67 637.333 446.47 635.6C450.27 633.867 454.636 633 459.57 633C463.036 633 466.036 633.567 468.57 634.7C471.17 635.767 473.303 637.233 474.97 639.1C476.636 640.9 477.87 642.967 478.67 645.3C479.536 647.633 479.97 650.033 479.97 652.5C479.97 653.3 479.903 654.133 479.77 655C479.703 655.8 479.536 656.867 479.27 658.2L478.17 663.3H441.77ZM457.57 644.4C454.436 644.4 451.703 645.2 449.37 646.8C447.103 648.333 445.403 650.233 444.27 652.5H467.67C467.67 649.967 466.87 648 465.27 646.6C463.736 645.133 461.17 644.4 457.57 644.4ZM529.6 649.2C529.733 648.667 529.8 648.2 529.8 647.8C529.8 645.933 528.9 645 527.1 645C526.033 645 525.233 645.367 524.7 646.1C524.167 646.767 523.8 647.6 523.6 648.6L516 684H503.4L510.8 649.2C510.933 648.533 511 648.067 511 647.8C511 645.933 510.133 645 508.4 645C506.467 645 505.267 646.2 504.8 648.6L497.2 684H484.7L495.2 634.4H507.8L506.8 639.2H508.6C509.133 637.133 510.133 635.6 511.6 634.6C513.067 633.533 514.733 633 516.6 633C518.8 633 520.467 633.6 521.6 634.8C522.733 636 523.467 637.467 523.8 639.2H525.6C526.333 637.4 527.433 635.933 528.9 634.8C530.433 633.6 532.4 633 534.8 633C537.6 633 539.733 633.9 541.2 635.7C542.733 637.5 543.5 639.667 543.5 642.2C543.5 642.667 543.467 643.1 543.4 643.5C543.4 643.833 543.333 644.267 543.2 644.8L537.3 672.1L538.3 672.8L541.7 670.4L548 679.8L543.5 682.8C542.167 683.733 540.8 684.4 539.4 684.8C538.067 685.2 536.733 685.4 535.4 685.4C533.933 685.4 532.533 685.133 531.2 684.6C529.933 684.133 528.8 683.433 527.8 682.5C526.8 681.567 526 680.433 525.4 679.1C524.867 677.7 524.6 676.133 524.6 674.4C524.6 673.467 524.733 672.333 525 671L529.6 649.2ZM564.23 663.3C564.097 663.833 564.03 664.4 564.03 665C564.03 667.4 564.93 669.4 566.73 671C568.597 672.6 571.03 673.4 574.03 673.4C577.164 673.4 579.664 672.833 581.53 671.7C583.397 670.567 584.83 669.233 585.83 667.7L595.83 674C595.03 675.333 593.964 676.667 592.63 678C591.364 679.333 589.764 680.567 587.83 681.7C585.964 682.767 583.73 683.633 581.13 684.3C578.597 685.033 575.63 685.4 572.23 685.4C569.164 685.4 566.33 684.933 563.73 684C561.197 683 558.997 681.667 557.13 680C555.33 678.267 553.897 676.233 552.83 673.9C551.83 671.5 551.33 668.867 551.33 666C551.33 661.467 551.997 657.2 553.33 653.2C554.73 649.2 556.73 645.7 559.33 642.7C561.93 639.7 565.13 637.333 568.93 635.6C572.73 633.867 577.097 633 582.03 633C585.497 633 588.497 633.567 591.03 634.7C593.63 635.767 595.764 637.233 597.43 639.1C599.097 640.9 600.33 642.967 601.13 645.3C601.997 647.633 602.43 650.033 602.43 652.5C602.43 653.3 602.364 654.133 602.23 655C602.164 655.8 601.997 656.867 601.73 658.2L600.63 663.3H564.23ZM580.03 644.4C576.897 644.4 574.164 645.2 571.83 646.8C569.564 648.333 567.864 650.233 566.73 652.5H590.13C590.13 649.967 589.33 648 587.73 646.6C586.197 645.133 583.63 644.4 580.03 644.4ZM641.161 644.4C640.428 644.4 639.661 644.5 638.861 644.7C638.128 644.833 637.428 645.067 636.761 645.4C636.094 645.733 635.528 646.2 635.061 646.8C634.661 647.333 634.461 648 634.461 648.8C634.461 650.2 635.261 651.233 636.861 651.9C638.461 652.567 641.194 653.133 645.061 653.6C649.394 654.133 652.894 655.467 655.561 657.6C658.228 659.667 659.561 662.667 659.561 666.6C659.561 672.467 657.494 677.067 653.361 680.4C649.294 683.733 643.628 685.4 636.361 685.4C632.694 685.4 629.528 684.867 626.861 683.8C624.261 682.733 622.094 681.4 620.361 679.8C618.694 678.2 617.428 676.433 616.561 674.5C615.694 672.567 615.228 670.733 615.161 669L627.561 666C627.761 668.2 628.694 670.1 630.361 671.7C632.028 673.233 634.561 674 637.961 674C640.294 674 642.328 673.633 644.061 672.9C645.794 672.167 646.661 670.867 646.661 669C646.661 667.6 645.994 666.5 644.661 665.7C643.328 664.833 640.861 664.233 637.261 663.9C632.461 663.5 628.628 662.133 625.761 659.8C622.961 657.467 621.561 654.367 621.561 650.5C621.561 647.7 622.128 645.2 623.261 643C624.461 640.8 626.028 638.967 627.961 637.5C629.894 636.033 632.128 634.933 634.661 634.2C637.261 633.4 639.961 633 642.761 633C646.228 633 649.128 633.467 651.461 634.4C653.794 635.333 655.694 636.5 657.161 637.9C658.628 639.3 659.694 640.833 660.361 642.5C661.094 644.1 661.561 645.6 661.761 647L649.561 650.2C649.294 648.4 648.461 647 647.061 646C645.661 644.933 643.694 644.4 641.161 644.4ZM691.991 646.4H677.991V634.4H694.591L699.191 612.6H711.791L707.191 634.4H724.391V646.4H704.591L698.991 672.1L699.991 672.8L713.391 663.6L719.691 673L705.191 682.8C702.658 684.533 699.958 685.4 697.091 685.4C695.625 685.4 694.225 685.133 692.891 684.6C691.558 684.133 690.391 683.433 689.391 682.5C688.391 681.567 687.591 680.433 686.991 679.1C686.391 677.767 686.091 676.267 686.091 674.6C686.091 674.067 686.125 673.6 686.191 673.2C686.258 672.733 686.358 672.133 686.491 671.4L691.991 646.4ZM747.922 663.3C747.789 663.833 747.722 664.4 747.722 665C747.722 667.4 748.622 669.4 750.422 671C752.289 672.6 754.722 673.4 757.722 673.4C760.855 673.4 763.355 672.833 765.222 671.7C767.089 670.567 768.522 669.233 769.522 667.7L779.522 674C778.722 675.333 777.655 676.667 776.322 678C775.055 679.333 773.455 680.567 771.522 681.7C769.655 682.767 767.422 683.633 764.822 684.3C762.289 685.033 759.322 685.4 755.922 685.4C752.855 685.4 750.022 684.933 747.422 684C744.889 683 742.689 681.667 740.822 680C739.022 678.267 737.589 676.233 736.522 673.9C735.522 671.5 735.022 668.867 735.022 666C735.022 661.467 735.689 657.2 737.022 653.2C738.422 649.2 740.422 645.7 743.022 642.7C745.622 639.7 748.822 637.333 752.622 635.6C756.422 633.867 760.789 633 765.722 633C769.189 633 772.189 633.567 774.722 634.7C777.322 635.767 779.455 637.233 781.122 639.1C782.789 640.9 784.022 642.967 784.822 645.3C785.689 647.633 786.122 650.033 786.122 652.5C786.122 653.3 786.055 654.133 785.922 655C785.855 655.8 785.689 656.867 785.422 658.2L784.322 663.3H747.922ZM763.722 644.4C760.589 644.4 757.855 645.2 755.522 646.8C753.255 648.333 751.555 650.233 750.422 652.5H773.822C773.822 649.967 773.022 648 771.422 646.6C769.889 645.133 767.322 644.4 763.722 644.4ZM810.452 646.2L809.452 645.6L801.552 651.4L794.852 642.4L802.852 636.4C804.386 635.267 805.986 634.433 807.652 633.9C809.386 633.3 811.019 633 812.552 633C815.219 633 817.552 633.733 819.552 635.2C821.552 636.667 822.752 638.733 823.152 641.4H824.952C826.286 638.6 828.152 636.5 830.552 635.1C832.952 633.7 835.652 633 838.652 633C842.452 633 845.519 634.2 847.852 636.6C850.252 638.933 851.452 642.2 851.452 646.4C851.452 647.267 851.386 648.133 851.252 649C851.186 649.8 851.019 650.8 850.752 652L850.252 654.2L836.852 655.2L837.152 653.8C837.352 652.8 837.452 651.9 837.452 651.1C837.452 649.167 836.919 647.633 835.852 646.5C834.786 645.367 833.186 644.8 831.052 644.8C828.386 644.8 826.252 645.7 824.652 647.5C823.119 649.3 821.986 651.867 821.252 655.2L817.652 672H829.652V684H795.452V672H805.052L810.452 646.2Z" fill="white"/>
</svg>
